<?xml version="1.0" encoding="UTF-8" standalone="no"?>
<!DOCTYPE svg PUBLIC "-//W3C//DTD SVG 1.1//EN" "http://www.w3.org/Graphics/SVG/1.1/DTD/svg11.dtd">
<svg xmlns="http://www.w3.org/2000/svg" version="1.1" viewBox="0.00 0.00 1024.00 1024.00">
<ellipse fill="#d37334" cx="0.00" cy="0.00" transform="translate(491.39,219.84) rotate(-86.4)" rx="25.66" ry="25.33"/>
<ellipse fill="#d37334" cx="0.00" cy="0.00" transform="translate(550.57,266.42) rotate(-179.2)" rx="18.56" ry="17.69"/>
<path fill="#d37334" d="
  M 327.95 596.86
  A 0.43 0.43 0.0 0 0 327.97 596.08
  Q 311.43 588.03 295.56 578.94
  Q 292.51 577.19 290.72 574.77
  C 288.42 571.66 291.20 566.65 293.38 564.06
  Q 320.80 531.46 347.12 510.83
  Q 385.51 480.75 430.78 464.01
  Q 441.01 460.22 451.80 456.53
  Q 462.58 452.85 470.51 444.24
  Q 477.06 437.13 479.52 428.15
  Q 480.99 422.77 480.88 409.71
  Q 480.80 400.25 480.86 344.67
  A 0.71 0.70 0.4 0 0 480.15 343.96
  L 461.98 343.96
  A 1.03 0.64 39.5 0 1 461.75 343.93
  Q 453.61 341.60 450.58 335.10
  Q 446.98 327.36 451.45 319.93
  C 454.70 314.52 460.60 312.94 466.75 312.97
  Q 477.87 313.02 620.76 313.00
  C 628.54 313.00 635.90 318.40 636.89 326.29
  C 637.76 333.18 634.13 339.48 627.85 342.62
  Q 624.88 344.10 619.24 344.01
  Q 613.98 343.92 605.39 343.96
  A 0.37 0.37 0.0 0 0 605.02 344.33
  Q 604.97 399.96 605.02 426.18
  C 605.03 430.25 605.82 435.70 606.42 438.95
  Q 607.82 446.53 611.88 454.43
  C 619.44 469.18 629.98 481.72 641.34 493.04
  Q 659.71 511.35 691.84 542.90
  Q 696.60 547.57 699.32 549.65
  Q 701.02 550.96 703.22 551.24
  A 1.90 1.89 -62.9 0 0 704.75 550.74
  Q 707.02 548.63 708.47 546.73
  C 722.57 528.28 737.32 511.32 755.19 497.47
  C 768.83 486.90 784.92 478.48 801.69 476.16
  Q 803.00 475.98 804.81 476.08
  A 1.39 1.39 0.0 0 1 805.99 478.06
  Q 781.53 530.26 786.56 588.27
  Q 789.95 627.28 805.48 662.80
  Q 806.15 664.33 805.99 666.09
  A 2.10 2.10 0.0 0 1 804.19 667.98
  Q 800.93 668.43 797.79 667.68
  C 779.80 663.37 763.40 652.70 749.15 640.32
  Q 730.89 624.44 716.19 606.07
  Q 707.92 595.75 706.58 593.93
  Q 703.68 590.02 699.62 593.12
  C 697.83 594.49 695.28 596.50 693.75 597.95
  C 683.89 607.29 675.68 614.75 665.48 622.02
  A 0.57 0.57 0.0 0 0 665.30 622.75
  Q 667.14 626.28 669.02 629.22
  Q 681.45 648.64 701.31 681.27
  Q 702.93 683.93 706.72 690.85
  C 714.22 704.54 718.26 720.37 715.22 736.90
  C 710.31 763.60 691.75 783.65 665.81 791.51
  Q 661.93 792.69 656.15 793.48
  Q 652.09 794.03 646.31 794.03
  Q 460.73 794.02 421.50 793.97
  C 417.39 793.96 411.29 794.17 406.86 793.41
  Q 382.21 789.17 366.48 771.49
  Q 353.12 756.47 350.05 736.99
  Q 347.33 719.73 352.62 703.60
  C 356.57 691.55 363.71 679.54 371.08 668.35
  A 0.51 0.50 -55.8 0 0 370.95 667.66
  Q 367.87 665.45 364.78 663.95
  Q 358.64 660.96 348.45 654.04
  Q 326.31 639.01 307.79 620.46
  Q 300.90 613.57 295.54 606.72
  Q 293.02 603.52 291.42 600.40
  A 3.04 3.04 0.0 0 1 292.05 596.78
  Q 293.74 595.21 295.99 595.05
  C 302.69 594.58 310.55 595.71 317.00 596.04
  Q 322.12 596.31 326.99 597.01
  Q 327.46 597.07 327.95 596.86
  Z
  M 488.32 470.64
  Q 489.48 471.02 490.01 471.01
  Q 498.03 470.80 501.75 471.08
  Q 520.46 472.50 538.69 476.57
  Q 552.32 479.62 571.58 487.07
  C 582.36 491.24 593.14 497.24 603.05 502.01
  A 1.48 1.48 0.0 0 0 605.17 500.78
  Q 605.35 498.28 603.64 496.11
  C 590.17 479.03 580.31 461.01 577.39 439.81
  C 576.94 436.57 576.91 433.04 576.58 430.48
  Q 576.18 427.33 576.18 423.47
  Q 576.25 374.19 576.17 344.56
  A 0.61 0.61 0.0 0 0 575.56 343.95
  L 510.81 343.95
  A 0.59 0.59 0.0 0 0 510.22 344.54
  Q 510.39 379.89 510.29 416.76
  Q 510.24 435.89 503.10 449.94
  C 500.21 455.61 496.47 460.64 492.70 465.69
  Q 491.83 466.85 488.21 470.11
  A 0.31 0.31 0.0 0 0 488.32 470.64
  Z
  M 445.43 501.78
  A 0.39 0.38 9.5 0 0 444.82 502.21
  Q 448.78 511.67 451.14 520.42
  Q 456.77 541.34 457.81 560.25
  Q 458.92 580.32 455.52 597.82
  C 451.47 618.65 442.77 640.43 429.80 658.30
  A 0.31 0.31 0.0 0 0 430.21 658.75
  Q 436.21 655.26 441.06 651.86
  Q 445.82 648.51 450.86 643.55
  C 465.45 629.16 476.52 609.97 479.59 589.62
  Q 480.69 582.29 480.82 580.59
  Q 481.88 566.52 478.42 553.13
  Q 472.90 531.81 458.34 514.95
  Q 451.56 507.10 445.43 501.78
  Z
  M 404.37 552.62
  A 17.75 17.75 0.0 0 0 386.62 534.87
  A 17.75 17.75 0.0 0 0 368.87 552.62
  A 17.75 17.75 0.0 0 0 386.62 570.37
  A 17.75 17.75 0.0 0 0 404.37 552.62
  Z
  M 397.33 681.45
  Q 395.94 684.34 394.81 686.10
  Q 387.01 698.24 383.17 706.14
  Q 376.54 719.81 379.53 734.72
  C 382.51 749.57 392.75 760.62 407.28 764.56
  Q 412.43 765.96 423.98 765.96
  Q 589.72 765.96 647.03 766.04
  Q 652.13 766.05 655.90 765.28
  C 670.30 762.35 681.13 752.48 685.30 738.80
  C 688.77 727.42 686.50 715.29 680.89 705.11
  Q 677.53 699.03 673.71 692.78
  Q 672.25 690.39 641.91 641.45
  A 1.40 1.40 0.0 0 0 639.89 641.06
  Q 601.39 669.72 554.95 678.94
  Q 549.87 679.94 543.52 680.73
  Q 534.04 681.91 532.03 682.06
  C 528.49 682.32 526.80 683.30 528.03 687.03
  Q 528.81 689.43 531.41 693.85
  Q 538.40 705.79 545.46 717.03
  A 2.75 2.69 22.5 0 1 545.76 717.73
  C 547.36 723.62 544.41 724.91 539.76 725.30
  Q 531.43 726.01 519.99 723.49
  Q 497.52 718.54 477.23 708.26
  Q 470.21 704.71 462.06 700.42
  A 4.18 3.97 -24.6 0 0 460.98 700.05
  Q 453.24 698.69 446.21 697.45
  Q 420.90 692.97 398.40 681.10
  A 0.79 0.78 -62.8 0 0 397.33 681.45
  Z"
/>
</svg>
