<?xml version="1.0" encoding="UTF-8" standalone="no"?>
<!DOCTYPE svg PUBLIC "-//W3C//DTD SVG 1.1//EN" "http://www.w3.org/Graphics/SVG/1.1/DTD/svg11.dtd">
<svg xmlns="http://www.w3.org/2000/svg" version="1.1" viewBox="0.00 0.00 1160.00 476.00">
<rect fill="#d17639" fill-opacity="0.996" x="-15.73" y="-15.11" transform="translate(168.54,57.13) rotate(-2.2)" width="31.46" height="30.22" rx="13.79"/>
<ellipse fill="#d17639" fill-opacity="0.996" cx="0.00" cy="0.00" transform="translate(206.08,86.82) rotate(-172.7)" rx="11.92" ry="11.27"/>
<path fill="#d17639" fill-opacity="0.996" d="
  M 66.41 297.92
  C 58.96 294.39 50.78 290.83 43.82 286.29
  A 2.44 2.44 0.0 0 1 42.74 283.99
  Q 42.91 282.41 44.28 280.03
  Q 49.20 271.53 57.15 263.39
  C 72.31 247.85 89.24 234.71 108.81 224.57
  Q 121.83 217.82 138.03 211.78
  Q 143.73 209.65 149.21 206.73
  C 158.77 201.64 163.07 191.42 163.18 180.75
  Q 163.35 165.37 163.15 137.67
  A 0.56 0.56 0.0 0 0 162.60 137.11
  Q 156.12 137.02 152.50 137.07
  Q 142.51 137.23 141.98 128.03
  Q 141.60 121.52 146.16 118.61
  Q 148.61 117.04 156.76 117.05
  Q 253.63 117.12 255.03 117.09
  A 2.99 2.88 50.8 0 1 255.86 117.19
  Q 265.92 120.01 263.93 130.50
  C 262.96 135.64 258.51 137.02 253.19 137.07
  Q 248.01 137.13 242.83 136.92
  A 0.41 0.41 0.0 0 0 242.41 137.32
  Q 242.18 162.58 242.45 187.24
  Q 242.62 202.37 251.03 214.52
  Q 253.43 217.99 257.89 223.08
  C 263.70 229.71 269.94 234.57 276.45 241.09
  Q 297.33 261.98 306.67 271.15
  A 0.95 0.94 41.9 0 0 308.06 271.08
  Q 315.83 261.58 325.85 248.59
  C 337.81 233.10 353.66 220.74 373.18 216.45
  Q 376.02 215.82 379.02 215.73
  A 0.55 0.55 0.0 0 1 379.56 216.46
  Q 377.34 222.84 375.68 227.39
  Q 368.58 246.79 366.34 266.66
  Q 362.27 302.91 373.95 336.54
  Q 375.47 340.93 377.90 347.43
  A 1.59 1.59 0.0 0 1 376.27 349.57
  Q 353.70 347.46 337.05 332.47
  C 331.38 327.37 325.43 321.56 320.69 314.46
  Q 314.70 305.49 307.56 296.96
  A 1.31 1.30 -42.3 0 0 305.64 296.87
  Q 295.25 307.08 292.24 310.27
  C 289.76 312.89 285.65 315.83 283.77 317.65
  A 0.80 0.80 0.0 0 0 283.58 318.50
  C 284.08 319.81 285.57 321.62 286.27 322.88
  Q 292.12 333.37 305.76 356.27
  Q 307.56 359.31 309.70 364.56
  C 318.36 385.86 308.32 409.62 287.86 419.66
  Q 278.93 424.04 269.00 424.04
  Q 184.79 424.02 125.54 424.02
  C 99.83 424.02 80.92 404.50 81.91 378.72
  C 82.30 368.50 88.30 357.01 94.07 347.95
  A 1.02 1.01 -60.4 0 0 93.68 346.51
  Q 87.29 343.21 80.85 338.14
  Q 66.04 326.46 60.34 321.66
  Q 52.33 314.92 46.24 306.75
  Q 43.95 303.68 42.95 300.26
  A 0.89 0.88 73.5 0 1 43.54 299.16
  Q 46.71 298.21 50.02 298.35
  Q 58.28 298.71 66.15 298.97
  A 0.55 0.55 0.0 0 0 66.41 297.92
  Z
  M 242.32 236.43
  C 240.95 234.12 238.68 232.52 237.28 230.33
  Q 233.41 224.29 230.70 219.15
  C 224.09 206.58 222.67 194.33 222.94 179.29
  Q 222.96 177.92 222.96 137.31
  A 0.37 0.36 -0.0 0 0 222.59 136.95
  L 182.32 136.95
  A 0.38 0.38 0.0 0 0 181.94 137.33
  Q 182.01 177.85 182.04 179.50
  C 182.36 193.46 178.05 206.40 168.21 216.40
  A 2.02 1.99 -76.0 0 1 167.36 216.92
  Q 166.00 217.36 165.12 218.38
  A 0.35 0.34 22.5 0 0 165.36 218.94
  Q 167.82 219.16 170.79 219.11
  Q 193.22 218.71 214.14 224.59
  C 222.77 227.02 231.09 230.69 237.94 234.64
  Q 242.00 236.98 242.03 236.98
  A 0.36 0.36 0.0 0 0 242.32 236.43
  Z
  M 147.03 287.94
  Q 145.44 311.37 133.63 332.61
  Q 131.95 335.64 129.57 338.43
  A 0.42 0.42 0.0 0 0 130.02 339.10
  Q 132.64 338.26 135.08 336.54
  C 150.59 325.66 161.00 307.99 162.28 288.98
  C 163.57 269.96 155.64 251.05 141.74 238.18
  Q 139.56 236.15 137.07 234.96
  A 0.42 0.42 0.0 0 0 136.54 235.56
  Q 138.52 238.65 139.78 241.88
  Q 148.61 264.52 147.03 287.94
  Z
  M 114.5231 268.2163
  A 12.84 12.26 -7.4 0 0 100.2110 257.7121
  A 12.84 12.26 -7.4 0 0 89.0569 271.5237
  A 12.84 12.26 -7.4 0 0 103.3690 282.0279
  A 12.84 12.26 -7.4 0 0 114.5231 268.2163
  Z
  M 189.70 353.75
  L 204.89 378.96
  A 1.98 1.98 0.0 0 1 203.88 381.84
  Q 202.63 382.31 200.24 382.33
  Q 181.00 382.51 163.14 374.09
  Q 159.14 372.21 150.18 366.64
  Q 149.28 366.08 145.16 366.10
  A 10.63 10.02 -39.1 0 1 143.40 365.97
  Q 127.48 363.56 113.29 357.38
  A 1.06 1.05 -61.7 0 0 111.98 357.78
  Q 110.17 360.57 108.27 362.83
  C 103.10 368.98 100.85 377.19 101.95 384.84
  C 103.64 396.46 111.66 403.06 122.19 405.71
  Q 126.62 406.83 137.01 406.83
  Q 196.52 406.86 258.71 406.86
  C 264.56 406.86 270.78 406.25 275.64 404.60
  C 285.80 401.13 294.84 390.07 292.96 379.00
  Q 291.77 371.97 287.19 364.35
  Q 286.78 363.66 268.37 332.47
  Q 266.82 329.83 266.20 329.31
  A 0.61 0.61 0.0 0 0 265.38 329.33
  Q 263.30 331.32 257.68 334.68
  Q 236.93 347.08 213.38 350.88
  Q 209.03 351.59 190.09 352.99
  A 0.50 0.50 0.0 0 0 189.70 353.75
  Z"
/>
<path fill="#d17639" fill-opacity="0.996" d="
  M 453.60 334.30
  L 433.31 334.30
  A 0.38 0.38 0.0 0 1 432.93 333.92
  L 432.93 227.29
  A 0.38 0.38 0.0 0 1 433.31 226.91
  L 501.48 226.91
  A 0.38 0.38 0.0 0 1 501.86 227.29
  L 501.86 243.82
  A 0.38 0.38 0.0 0 1 501.48 244.20
  L 454.32 244.20
  A 0.38 0.38 0.0 0 0 453.94 244.58
  L 453.94 271.98
  A 0.38 0.38 0.0 0 0 454.32 272.36
  L 496.91 272.36
  A 0.38 0.38 0.0 0 1 497.29 272.74
  L 497.29 289.59
  A 0.38 0.38 0.0 0 1 496.91 289.97
  L 454.36 289.97
  A 0.38 0.38 0.0 0 0 453.98 290.35
  L 453.98 333.92
  A 0.38 0.38 0.0 0 1 453.60 334.30
  Z"
/>
<path fill="#d17639" fill-opacity="0.996" d="
  M 968.22 324.32
  A 0.34 0.33 29.4 0 0 967.60 324.49
  L 967.60 333.85
  A 0.57 0.57 0.0 0 1 967.03 334.42
  L 948.54 334.42
  A 0.52 0.52 0.0 0 1 948.02 333.90
  L 948.02 227.22
  A 0.31 0.30 -0.0 0 1 948.33 226.92
  L 968.75 226.92
  A 0.30 0.30 0.0 0 1 969.05 227.22
  L 969.05 263.19
  A 0.42 0.41 -17.2 0 0 969.70 263.53
  Q 970.09 263.27 972.43 261.20
  Q 980.15 254.37 990.23 253.89
  Q 1007.84 253.07 1018.74 265.23
  Q 1026.70 274.11 1028.84 286.95
  Q 1029.20 289.15 1029.12 297.85
  Q 1029.06 304.60 1027.87 308.60
  Q 1024.75 319.11 1019.06 325.13
  Q 1004.43 340.62 983.12 335.62
  Q 975.86 333.92 970.55 328.06
  A 0.03 0.02 31.7 0 1 970.54 328.04
  L 968.22 324.32
  Z
  M 988.83 319.32
  C 997.09 319.22 1003.42 314.76 1006.21 307.18
  C 1009.72 297.68 1008.80 284.63 1001.50 276.92
  Q 995.88 270.98 988.26 271.07
  Q 980.64 271.16 975.17 277.23
  C 968.05 285.11 967.44 298.18 971.17 307.60
  C 974.15 315.11 980.57 319.42 988.83 319.32
  Z"
/>
<path fill="#d17639" fill-opacity="0.996" d="
  M 801.32 316.09
  L 850.77 316.09
  A 0.32 0.32 0.0 0 1 851.09 316.41
  L 851.09 334.01
  A 0.32 0.32 0.0 0 1 850.77 334.33
  L 780.57 334.33
  A 0.32 0.32 0.0 0 1 780.25 334.01
  L 780.25 227.24
  A 0.32 0.32 0.0 0 1 780.57 226.92
  L 800.68 226.92
  A 0.32 0.32 0.0 0 1 801.00 227.24
  L 801.00 315.77
  A 0.32 0.32 0.0 0 0 801.32 316.09
  Z"
/>
<path fill="#d17639" fill-opacity="0.996" d="
  M 618.24 265.56
  A 0.51 0.50 -30.6 0 0 619.19 265.80
  C 623.03 258.95 629.70 255.31 637.72 254.30
  C 651.12 252.61 666.24 256.79 670.88 270.98
  Q 672.64 276.38 672.67 283.26
  Q 672.69 291.27 672.79 333.89
  A 0.43 0.43 0.0 0 1 672.36 334.32
  L 652.90 334.32
  A 0.62 0.62 0.0 0 1 652.28 333.70
  Q 652.44 313.22 652.36 295.01
  C 652.34 287.72 652.38 276.83 644.49 273.32
  C 635.76 269.44 625.40 272.99 621.35 281.57
  C 620.00 284.41 619.23 289.14 619.21 292.61
  Q 619.13 309.75 619.27 333.88
  A 0.46 0.46 0.0 0 1 618.81 334.34
  L 599.37 334.34
  A 0.38 0.37 0.0 0 1 598.99 333.97
  L 598.99 256.39
  A 0.59 0.58 0.0 0 1 599.58 255.81
  L 617.64 255.81
  A 0.61 0.60 -90.0 0 1 618.24 256.42
  L 618.24 265.56
  Z"
/>
<path fill="#d17639" fill-opacity="0.996" d="
  M 710.41 264.41
  Q 713.13 261.59 713.37 261.36
  Q 719.49 255.48 727.91 254.40
  C 733.02 253.75 740.30 253.60 745.46 255.44
  Q 760.24 260.69 762.68 277.28
  Q 763.03 279.65 763.03 289.26
  Q 763.02 319.39 763.12 333.97
  A 0.39 0.39 0.0 0 1 762.73 334.36
  L 743.25 334.36
  A 0.41 0.40 0.7 0 1 742.84 333.95
  Q 743.03 306.08 742.85 287.67
  C 742.78 280.31 738.50 273.25 730.76 272.20
  C 720.08 270.74 712.47 276.51 710.76 287.05
  C 710.34 289.61 710.02 290.90 710.02 293.34
  Q 710.05 332.32 710.06 333.85
  A 0.51 0.51 0.0 0 1 709.55 334.37
  L 690.57 334.37
  A 0.53 0.53 0.0 0 1 690.04 333.84
  L 690.04 256.42
  A 0.60 0.60 0.0 0 1 690.64 255.82
  L 709.04 255.82
  A 0.64 0.64 0.0 0 1 709.68 256.46
  L 709.68 264.11
  A 0.43 0.42 67.2 0 0 710.41 264.41
  Z"
/>
<path fill="#d17639" fill-opacity="0.996" d="
  M 865.42 266.81
  A 0.36 0.35 37.7 0 1 865.34 266.22
  C 877.22 255.83 891.92 252.38 907.33 254.58
  Q 916.50 255.90 922.15 260.49
  Q 928.03 265.28 930.49 272.71
  Q 932.07 277.53 932.01 287.58
  Q 931.87 309.84 931.99 326.75
  Q 932.02 330.65 932.30 333.87
  A 0.50 0.50 0.0 0 1 931.80 334.42
  L 913.39 334.42
  A 0.59 0.58 -90.0 0 1 912.81 333.83
  L 912.81 326.25
  A 0.51 0.51 0.0 0 0 911.89 325.96
  C 903.99 337.43 886.50 339.20 874.61 334.81
  C 864.57 331.10 859.06 321.13 860.37 310.49
  Q 861.19 303.87 864.12 299.68
  Q 869.01 292.70 877.57 289.65
  Q 886.60 286.43 895.51 286.13
  Q 904.36 285.82 911.36 285.91
  A 0.73 0.72 1.6 0 0 912.10 285.22
  C 912.85 270.07 896.08 268.35 885.80 272.80
  Q 880.41 275.14 875.58 278.76
  A 0.72 0.72 0.0 0 1 874.53 278.55
  Q 871.29 273.03 866.71 267.78
  Q 866.19 267.18 865.42 266.81
  Z
  M 911.39 299.41
  C 903.48 299.30 883.37 299.45 881.15 309.46
  C 879.51 316.82 885.39 321.01 892.28 320.90
  C 901.25 320.76 910.64 316.49 911.79 306.75
  Q 912.21 303.18 911.98 299.96
  A 0.60 0.59 -1.6 0 0 911.39 299.41
  Z"
/>
<path fill="#d17639" fill-opacity="0.996" d="
  M 1034.32 315.93
  A 0.79 0.78 -20.9 0 1 1034.79 314.90
  L 1051.67 308.76
  A 0.70 0.70 0.0 0 1 1052.58 309.23
  C 1054.09 314.94 1058.19 317.81 1063.55 319.74
  Q 1069.72 321.96 1076.47 319.96
  C 1079.32 319.11 1082.26 317.53 1083.20 314.75
  Q 1084.09 312.12 1083.24 309.84
  C 1082.05 306.60 1074.94 304.43 1071.66 303.60
  Q 1061.40 301.04 1055.02 298.98
  C 1045.85 296.03 1038.90 290.37 1038.74 279.98
  C 1038.51 265.26 1048.74 257.14 1062.49 254.72
  C 1078.02 252.00 1096.12 255.86 1103.42 271.40
  A 1.55 1.55 0.0 0 1 1102.55 273.51
  L 1086.53 279.33
  A 0.85 0.85 0.0 0 1 1085.44 278.85
  C 1083.09 273.18 1078.25 270.12 1071.97 269.78
  C 1067.24 269.52 1062.03 269.40 1059.02 273.66
  C 1056.26 277.55 1058.93 281.00 1062.66 282.45
  Q 1069.68 285.18 1076.89 286.38
  Q 1081.67 287.18 1090.14 290.54
  C 1104.10 296.06 1108.27 311.83 1099.98 324.21
  Q 1095.20 331.35 1085.69 334.47
  Q 1069.40 339.81 1052.89 333.95
  Q 1039.56 329.22 1034.32 315.93
  Z"
/>
<path fill="#d17639" fill-opacity="0.996" d="
  M 548.46 309.84
  A 0.42 0.41 -45.4 0 0 549.24 309.83
  L 567.87 256.31
  A 0.72 0.71 -80.1 0 1 568.54 255.83
  L 589.56 255.83
  A 0.37 0.37 0.0 0 1 589.90 256.33
  C 578.42 286.72 568.43 311.13 554.77 345.27
  Q 552.73 350.35 547.03 357.77
  C 539.87 367.08 528.81 368.72 517.46 367.69
  A 0.58 0.58 0.0 0 1 516.93 367.11
  L 516.93 351.32
  A 0.40 0.39 3.3 0 1 517.37 350.93
  Q 519.38 351.16 523.47 350.95
  C 533.09 350.46 535.68 344.09 538.52 336.25
  A 2.20 2.18 43.8 0 0 538.48 334.66
  L 505.79 256.53
  A 0.50 0.50 0.0 0 1 506.25 255.83
  L 527.90 255.83
  A 1.30 1.30 0.0 0 1 529.12 256.69
  L 548.46 309.84
  Z"
/>
</svg>
