<?xml version="1.0" encoding="UTF-8" standalone="no"?>
<!DOCTYPE svg PUBLIC "-//W3C//DTD SVG 1.1//EN" "http://www.w3.org/Graphics/SVG/1.1/DTD/svg11.dtd">
<svg xmlns="http://www.w3.org/2000/svg" version="1.1" viewBox="0.00 0.00 1024.00 1024.00">
<g stroke-width="2.00" fill="none" stroke-linecap="butt">
<path stroke="#d05114" vector-effect="non-scaling-stroke" d="
  M 304.68 467.99
  Q 298.73 468.97 292.49 467.72
  Q 287.75 466.77 282.16 466.87
  A 1.98 1.98 0.0 0 0 280.30 468.25
  Q 279.36 471.17 281.17 473.84
  Q 285.60 480.36 291.95 486.80
  Q 301.24 496.23 310.36 504.19
  Q 310.59 504.39 313.43 507.03
  C 317.66 510.96 323.18 514.43 327.76 518.07
  C 334.55 523.49 341.20 527.13 348.66 531.62
  A 1.80 1.79 -65.6 0 1 349.44 533.70
  Q 349.03 535.02 348.29 536.30
  Q 341.13 548.65 338.53 554.48
  Q 333.85 564.97 332.55 573.79
  Q 329.78 592.52 337.17 609.30
  Q 340.84 617.64 348.86 626.41
  C 352.01 629.85 356.42 632.46 360.15 635.37
  A 10.27 9.52 -9.3 0 0 361.40 636.20
  Q 361.49 636.26 366.28 638.48
  Q 370.09 640.24 372.00 640.60
  C 375.01 641.18 379.21 642.52 383.00 642.81
  Q 386.08 643.06 387.75 643.05
  Q 528.85 642.95 564.25 642.95
  Q 591.00 642.94 591.04 642.94
  Q 598.24 643.33 605.62 641.54
  Q 620.31 637.97 631.73 627.63
  Q 635.84 623.92 639.40 618.65
  Q 644.09 611.73 645.48 608.49
  C 648.91 600.46 651.54 590.89 650.78 582.00
  Q 650.20 575.25 649.69 572.02
  Q 649.19 568.86 646.87 562.05
  Q 645.18 557.09 642.81 552.51
  C 639.48 546.08 637.36 541.44 633.86 535.60
  Q 631.89 532.30 626.51 522.79
  C 621.71 514.30 615.93 505.70 611.90 498.58
  A 0.45 0.38 13.7 0 0 611.82 498.47
  L 609.11 495.32
  A 0.78 0.78 0.0 0 1 609.12 494.28
  Q 609.77 493.56 610.26 492.27
  A 2.01 1.95 -9.9 0 1 610.89 491.40
  C 614.19 488.76 617.31 486.96 620.22 484.33
  Q 630.68 474.91 636.70 469.87
  Q 641.01 466.27 646.33 468.68
  Q 649.09 469.93 650.56 472.21
  C 655.87 480.45 660.48 488.08 666.74 496.10
  C 675.55 507.37 686.82 516.95 698.38 524.37
  Q 709.44 531.46 723.94 535.55
  Q 725.66 536.03 735.42 538.16
  A 2.33 1.84 -20.7 0 1 735.89 538.31
  Q 738.34 539.41 741.26 539.34
  A 0.52 0.51 77.0 0 0 741.71 538.61
  Q 737.77 530.01 735.39 523.40
  Q 730.27 509.13 727.17 495.92
  Q 723.38 479.79 721.71 460.78
  Q 720.92 451.81 721.22 444.20
  Q 721.69 431.99 722.20 427.63
  Q 722.70 423.30 722.95 420.89
  Q 723.64 414.24 723.65 414.13
  Q 726.71 395.24 732.24 376.76
  C 734.22 370.11 737.43 362.88 739.33 357.17
  A 1.48 1.48 0.0 0 0 737.58 355.26
  Q 726.72 357.86 721.46 359.45
  C 712.38 362.18 701.65 367.78 692.80 374.33
  Q 678.22 385.12 665.83 400.83
  Q 656.13 413.14 651.90 419.80
  C 649.29 423.89 647.03 426.04 642.37 425.39
  Q 640.01 425.06 636.19 421.53
  Q 633.55 419.09 630.62 416.56
  A 3.66 2.94 9.0 0 1 630.13 416.02
  Q 628.04 413.13 624.95 410.91
  A 1.95 1.55 1.6 0 1 624.63 410.64
  Q 613.22 399.20 605.77 392.23
  Q 605.56 392.03 603.76 390.07
  C 601.57 387.68 598.72 385.76 596.62 383.61
  C 590.80 377.65 584.06 371.81 579.21 366.97
  Q 573.77 361.55 571.80 358.78
  Q 562.40 345.57 559.22 329.59
  Q 557.71 321.97 557.96 305.83
  Q 558.36 280.24 557.97 244.97
  A 1.40 1.40 0.0 0 1 559.31 243.56
  Q 565.61 243.27 570.74 243.40
  C 577.70 243.58 584.40 239.95 585.68 232.80
  Q 586.64 227.42 584.92 223.41
  A 1.84 1.45 -83.3 0 0 584.76 223.15
  L 582.00 219.53
  A 1.17 0.52 24.0 0 0 581.91 219.43
  C 576.03 214.24 568.24 215.97 561.09 215.88
  C 534.56 215.53 510.70 216.01 482.25 215.82
  Q 455.05 215.63 431.24 215.96
  Q 422.53 216.08 418.60 223.43
  A 2.53 2.44 63.2 0 0 418.30 224.40
  Q 417.66 230.77 417.89 232.13
  C 418.94 238.53 424.01 243.34 430.75 243.35
  Q 434.16 243.35 441.49 243.13
  C 444.22 243.05 447.55 243.08 447.56 246.25
  Q 447.58 255.68 447.59 272.27
  Q 447.60 288.89 447.86 305.51
  Q 448.22 328.61 430.05 341.60
  A 5.60 4.67 9.6 0 1 429.21 342.09
  C 420.79 346.01 411.15 348.00 402.88 350.92
  Q 393.87 354.10 390.19 355.67
  Q 369.50 364.50 349.66 376.71
  Q 339.85 382.75 330.39 390.10
  Q 319.80 398.33 312.42 405.18
  C 301.75 415.08 292.13 424.88 282.38 437.13
  Q 279.29 441.00 279.64 445.98
  C 279.87 449.29 282.79 450.66 285.62 452.12
  Q 295.85 457.38 305.89 464.10
  Q 307.12 464.93 306.44 466.01"
/>
<path stroke="#d05114" vector-effect="non-scaling-stroke" d="
  M 732.86 739.90
  L 731.31 738.30
  A 0.98 0.93 24.6 0 1 731.05 737.65
  L 731.05 696.89
  A 1.05 1.05 0.0 0 0 730.00 695.84
  L 709.69 695.84
  A 1.07 1.07 0.0 0 0 708.62 696.91
  L 708.62 819.26
  A 0.93 0.93 0.0 0 0 709.55 820.19
  L 728.03 820.19
  A 1.37 1.37 0.0 0 0 729.36 819.14
  L 730.92 812.47"
/>
<path stroke="#d05114" vector-effect="non-scaling-stroke" d="
  M 733.29 739.95
  Q 733.71 740.47 734.18 740.58
  Q 734.63 740.70 735.10 740.20
  Q 740.87 734.13 748.91 731.12
  C 751.36 730.20 753.49 730.08 755.55 729.37
  A 3.99 3.97 -56.4 0 1 756.43 729.19
  Q 771.34 728.12 782.65 736.07
  C 790.43 741.54 796.15 750.49 798.67 759.33
  Q 801.36 768.77 800.62 780.32
  Q 800.03 789.50 796.74 797.13
  C 787.97 817.40 766.39 826.92 745.37 820.15
  Q 738.99 818.09 734.56 813.10
  C 734.00 812.47 733.06 812.09 732.28 812.24"
/>
<path stroke="#d05114" vector-effect="non-scaling-stroke" d="
  M 165.01 720.90
  Q 168.67 719.72 172.76 719.68
  Q 194.18 719.50 213.91 719.72
  A 1.76 1.75 0.2 0 0 215.68 717.97
  L 215.68 700.51
  A 1.50 1.49 -0.0 0 0 214.18 699.02
  L 141.80 699.02
  A 1.69 1.69 0.0 0 0 140.11 700.71
  L 140.11 818.88
  A 1.49 1.48 -90.0 0 0 141.59 820.37
  L 162.39 820.37
  A 1.57 1.56 -90.0 0 0 163.95 818.80
  Q 163.99 789.20 163.92 774.05
  Q 163.90 771.73 166.24 771.67
  Q 186.02 771.14 208.15 771.44
  A 1.83 1.83 0.0 0 0 210.01 769.61
  L 210.01 752.10
  A 1.13 1.13 0.0 0 0 208.88 750.97
  L 169.51 750.97
  A 0.27 0.26 87.6 0 1 169.25 750.72
  L 169.23 750.47
  A 0.43 0.43 0.0 0 1 169.65 750.04
  Q 177.31 749.93 206.95 749.89
  Q 208.53 749.89 208.74 749.09"
/>
<path stroke="#d05114" vector-effect="non-scaling-stroke" d="
  M 449.00 737.10
  Q 447.62 734.91 447.48 732.72
  A 1.16 1.16 0.0 0 0 446.32 731.63
  L 427.91 731.63
  A 1.03 1.02 -0.0 0 0 426.88 732.65
  L 426.88 819.84
  A 0.43 0.43 0.0 0 0 427.31 820.27
  L 448.10 820.27
  A 1.27 1.26 87.7 0 0 449.36 818.90
  Q 449.25 817.68 449.17 816.00
  Q 448.87 809.80 448.90 770.01
  C 448.91 756.45 456.14 746.79 470.80 748.70
  C 478.29 749.67 482.13 754.01 484.87 760.77
  Q 486.12 763.85 486.00 769.17
  C 485.85 776.03 485.44 781.37 485.72 788.10
  Q 485.80 790.11 485.66 793.33
  C 485.46 797.86 485.90 802.79 485.88 806.45
  Q 485.85 815.16 486.09 818.89
  A 1.49 1.48 87.9 0 0 487.57 820.27
  L 507.72 820.27
  A 0.85 0.85 0.0 0 0 508.57 819.41
  Q 508.36 800.59 508.11 765.81
  C 508.04 756.86 505.98 745.99 500.10 739.24
  Q 495.60 734.08 491.11 732.12
  Q 469.11 722.56 450.30 740.58"
/>
<path stroke="#d05114" vector-effect="non-scaling-stroke" d="
  M 268.06 791.03
  L 267.07 790.64
  A 1.54 1.53 1.3 0 1 266.18 789.71
  L 246.86 733.66
  A 2.79 2.69 -75.0 0 0 246.39 732.81
  Q 245.57 731.90 243.50 731.93
  Q 232.84 732.10 224.07 731.74
  A 1.59 1.58 -11.3 0 0 222.57 733.99
  Q 223.85 736.75 225.24 740.27
  Q 233.94 762.27 244.77 788.72
  C 246.10 791.96 247.70 796.67 249.55 800.73
  Q 254.28 811.13 255.71 815.98
  Q 257.15 820.89 255.66 826.71
  A 4.54 4.54 0.0 0 1 255.03 828.14
  Q 254.04 829.66 252.59 832.11
  C 249.02 838.14 239.64 840.61 233.15 839.99
  A 1.07 1.06 -87.3 0 0 231.99 841.06
  L 231.99 857.35
  A 1.30 1.30 0.0 0 0 233.19 858.65
  Q 240.20 859.18 247.39 857.94
  C 264.05 855.05 271.50 841.49 276.69 826.92
  Q 278.24 822.56 280.04 817.98
  Q 290.38 791.73 301.60 762.71
  Q 302.67 759.93 303.70 757.23
  Q 307.67 746.78 313.01 732.86
  A 0.75 0.74 -79.6 0 0 312.32 731.85
  L 292.01 731.85
  A 2.14 2.13 -79.7 0 0 290.01 733.24
  Q 287.92 738.78 287.01 741.50
  Q 277.42 770.08 271.49 787.77
  Q 270.66 790.24 268.97 790.95"
/>
<path stroke="#d05114" vector-effect="non-scaling-stroke" d="
  M 456.0145 108.1817
  A 22.47 22.19 -89.3 0 0 433.5517 130.3789
  A 22.47 22.19 -89.3 0 0 455.4655 153.1183
  A 22.47 22.19 -89.3 0 0 477.9283 130.9211
  A 22.47 22.19 -89.3 0 0 456.0145 108.1817"
/>
<path stroke="#d05114" vector-effect="non-scaling-stroke" d="
  M 491.2449 170.4185
  A 17.33 16.92 -174.0 0 0 506.7114 189.0573
  A 17.33 16.92 -174.0 0 0 525.7151 174.0415
  A 17.33 16.92 -174.0 0 0 510.2486 155.4027
  A 17.33 16.92 -174.0 0 0 491.2449 170.4185"
/>
<path stroke="#d05114" vector-effect="non-scaling-stroke" d="
  M 460.56 355.16
  Q 460.47 356.72 462.14 356.83
  Q 509.97 359.97 550.80 384.78
  Q 552.33 385.71 553.06 384.32"
/>
<path stroke="#d05114" vector-effect="non-scaling-stroke" d="
  M 556.78 385.63
  Q 557.05 385.08 557.12 384.60
  A 1.13 1.11 27.8 0 0 556.84 383.72
  Q 551.16 377.46 547.42 371.09
  Q 531.73 344.38 530.69 312.98
  Q 529.60 280.20 530.17 248.75
  Q 530.22 245.89 528.91 243.79
  A 0.92 0.91 -16.3 0 0 528.14 243.37
  Q 504.56 243.28 479.18 243.38
  Q 477.23 243.39 476.54 243.90
  Q 475.59 244.61 475.50 246.33
  Q 475.19 251.90 475.38 259.61
  C 475.73 274.24 475.24 288.60 475.39 303.87
  C 475.44 307.87 474.98 311.57 475.02 314.35
  Q 475.06 317.71 474.00 322.10
  Q 471.94 330.66 469.99 334.53
  Q 466.73 341.01 461.52 347.77
  Q 459.82 349.96 456.98 352.07
  Q 456.29 352.59 456.36 353.46
  Q 456.42 354.12 457.02 354.08"
/>
<path stroke="#d05114" vector-effect="non-scaling-stroke" d="
  M 412.94 386.17
  Q 414.20 392.02 416.02 397.65
  Q 418.88 406.47 419.43 409.02
  Q 421.12 417.04 422.51 427.11
  C 423.37 433.30 423.06 437.87 423.00 444.82
  Q 422.93 452.29 422.16 458.10
  Q 417.62 491.87 399.59 521.17
  A 0.78 0.78 0.0 0 0 399.62 522.03
  L 400.32 523.01"
/>
<path stroke="#d05114" vector-effect="non-scaling-stroke" d="
  M 402.44 524.62
  Q 405.39 525.04 408.24 522.75
  Q 418.10 514.83 423.27 508.66
  C 426.21 505.16 428.17 502.23 431.44 497.48
  C 439.70 485.52 444.33 470.58 445.71 456.08
  Q 446.64 446.22 444.59 435.61
  Q 440.68 415.33 429.30 399.44
  Q 424.80 393.15 422.62 390.43
  Q 420.79 388.16 415.84 383.94
  A 1.09 1.07 -27.7 0 0 415.00 383.69
  L 413.32 383.89"
/>
<path stroke="#d05114" vector-effect="non-scaling-stroke" d="
  M 375.76 428.23
  A 17.90 17.90 0.0 0 0 357.86 410.33
  A 17.90 17.90 0.0 0 0 339.96 428.23
  A 17.90 17.90 0.0 0 0 357.86 446.13
  A 17.90 17.90 0.0 0 0 375.76 428.23"
/>
<path stroke="#d05114" vector-effect="non-scaling-stroke" d="
  M 483.55 542.78
  L 482.88 544.30
  A 0.89 0.87 38.9 0 0 482.98 545.17
  Q 488.83 553.24 493.70 561.56
  Q 495.56 564.73 499.52 573.30
  C 500.84 576.17 501.17 579.02 501.46 581.22
  A 2.31 2.30 85.4 0 1 499.24 583.83
  L 492.72 584.00
  A 16.49 16.26 -38.5 0 1 488.39 583.54
  C 482.07 581.99 476.57 581.24 470.42 579.32
  Q 450.60 573.13 432.43 562.99
  Q 430.76 562.06 429.28 561.43
  Q 426.62 560.31 425.99 560.22
  Q 406.65 557.36 387.03 550.00
  C 383.04 548.51 379.15 545.65 375.82 546.19
  Q 374.87 546.35 373.49 549.02
  C 371.25 553.33 365.89 560.71 363.50 565.97
  C 361.10 571.24 358.34 577.20 358.39 582.51
  Q 358.58 601.17 373.43 611.18
  C 377.61 614.00 383.27 615.92 388.25 616.26
  Q 395.46 616.75 409.07 616.57
  Q 419.68 616.42 429.87 615.72
  Q 440.14 615.01 449.74 615.63
  Q 459.60 616.27 469.60 616.38
  Q 501.43 616.73 526.32 615.84
  Q 538.56 615.40 549.26 615.74
  Q 571.67 616.47 572.19 616.49
  Q 578.78 616.80 580.82 616.68
  C 588.00 616.23 595.01 617.11 600.90 614.91
  C 613.26 610.28 621.43 600.85 623.47 587.59
  C 624.86 578.51 621.57 570.50 617.63 562.72
  Q 615.52 558.55 614.02 556.01
  Q 605.99 542.39 595.24 524.81
  Q 591.71 519.04 586.80 511.98
  Q 585.78 510.52 584.29 510.36
  A 1.43 1.34 -56.2 0 0 583.42 510.56
  Q 565.91 521.23 551.43 527.15
  Q 533.68 534.39 511.59 538.33
  Q 500.81 540.25 498.06 540.02
  Q 497.66 539.99 496.96 540.26
  A 2.76 2.72 35.1 0 1 495.88 540.44
  Q 489.65 540.25 483.77 542.20"
/>
<path stroke="#d05114" vector-effect="non-scaling-stroke" d="
  M 739.35 798.66
  Q 739.67 798.85 742.58 800.62
  C 749.60 804.90 758.85 805.18 766.08 800.68
  C 774.05 795.72 778.10 786.40 777.94 777.01
  C 777.83 770.27 776.35 761.28 771.87 756.15
  Q 768.49 752.29 767.20 751.56
  Q 757.71 746.15 747.40 748.78
  C 739.87 750.70 734.75 757.51 732.83 764.76
  Q 728.95 779.43 734.84 792.93
  Q 735.29 793.96 738.47 797.90
  A 3.24 3.22 -4.0 0 0 739.35 798.66"
/>
<path stroke="#d05114" vector-effect="non-scaling-stroke" d="
  M 552.32 798.71
  Q 551.69 793.17 551.72 786.79
  Q 551.84 755.82 551.69 698.71
  A 0.90 0.90 0.0 0 0 550.79 697.81
  L 530.18 697.81
  A 1.41 1.41 0.0 0 0 528.77 699.22
  L 528.77 818.95
  A 1.30 1.30 0.0 0 0 530.07 820.25
  L 600.18 820.25
  A 1.60 1.60 0.0 0 0 601.78 818.65
  L 601.78 801.01
  A 1.09 1.09 0.0 0 0 600.69 799.92
  L 553.68 799.92
  A 1.37 1.37 0.0 0 1 552.32 798.71"
/>
<path stroke="#d05114" vector-effect="non-scaling-stroke" d="
  M 385.42 820.21
  L 405.85 820.21
  A 1.92 1.92 0.0 0 0 407.77 818.25
  Q 407.49 807.08 406.98 775.45
  Q 406.90 770.59 407.03 766.56
  C 407.39 755.07 404.11 741.02 394.02 734.75
  Q 376.15 723.64 358.00 734.50
  Q 354.23 736.76 350.96 740.55
  A 1.63 1.63 0.0 0 1 348.42 740.45
  L 347.33 738.96
  A 1.41 1.40 -59.4 0 1 347.07 737.93
  Q 347.47 735.03 346.60 732.66
  A 0.92 0.91 -10.1 0 0 345.74 732.06
  L 327.36 732.06
  A 0.52 0.51 0.0 0 0 326.84 732.57
  L 326.84 819.50
  A 0.77 0.76 -0.0 0 0 327.61 820.26
  L 348.25 820.26
  A 1.03 1.03 0.0 0 0 349.28 819.22
  Q 348.99 798.97 349.06 772.68
  C 349.07 768.46 349.43 763.56 350.69 760.23
  Q 354.59 749.97 364.32 748.89
  C 371.11 748.13 376.77 749.23 381.05 754.73
  Q 384.60 759.30 384.67 765.53
  Q 384.96 791.43 384.85 813.27
  C 384.84 815.36 383.81 817.21 384.14 819.14
  A 1.30 1.30 0.0 0 0 385.42 820.21"
/>
<path stroke="#d05114" vector-effect="non-scaling-stroke" d="
  M 669.15 809.93
  Q 670.13 810.38 671.46 812.07
  A 0.64 0.62 -66.7 0 1 671.60 812.44
  L 672.12 819.06
  A 1.17 1.16 87.9 0 0 673.28 820.14
  L 691.29 820.14
  A 0.66 0.65 -1.6 0 0 691.95 819.45
  Q 691.20 804.08 691.20 785.04
  Q 691.20 768.27 691.15 764.48
  C 691.04 755.50 689.65 745.20 682.90 738.64
  Q 680.92 736.72 676.94 734.19
  Q 674.02 732.33 670.12 731.24
  C 653.36 726.60 633.89 729.39 620.75 741.49
  A 1.81 1.80 -42.1 0 0 620.62 744.01
  Q 625.25 749.24 628.28 754.94
  A 2.00 2.00 0.0 0 0 631.47 755.41
  C 638.16 748.70 646.76 745.43 656.45 746.75
  C 664.65 747.86 669.36 753.58 669.90 761.79
  Q 670.20 766.48 665.50 766.30
  C 656.93 765.98 646.48 765.67 637.05 767.79
  C 630.02 769.38 620.85 774.08 617.30 780.85
  Q 610.30 794.17 616.60 808.25
  C 619.80 815.38 627.58 820.19 634.98 821.50
  Q 637.85 822.01 640.33 822.54
  A 4.02 3.94 50.3 0 0 641.30 822.64
  C 647.52 822.49 655.12 821.49 660.04 817.79
  Q 664.15 814.69 668.27 810.12
  A 0.76 0.76 0.0 0 1 669.15 809.93"
/>
<path stroke="#d05114" vector-effect="non-scaling-stroke" d="
  M 831.45 752.90
  C 832.82 748.24 835.97 745.67 841.06 744.66
  Q 855.34 741.81 862.31 755.45
  Q 863.33 757.44 865.40 756.62
  Q 870.67 754.53 875.43 752.42
  Q 877.73 751.40 879.44 750.09
  A 1.23 1.22 -29.9 0 0 879.83 748.66
  Q 877.54 743.07 873.67 739.12
  C 866.04 731.31 852.10 728.59 841.69 729.35
  C 824.03 730.63 809.92 739.86 811.29 759.22
  Q 811.67 764.64 813.85 768.40
  Q 816.55 773.06 820.39 775.32
  Q 826.94 779.18 829.96 780.04
  Q 833.32 780.99 836.18 781.81
  C 841.31 783.27 846.20 783.95 850.85 785.37
  Q 857.31 787.33 860.59 792.59
  A 2.64 2.55 27.4 0 1 860.99 793.78
  Q 861.82 803.42 852.91 805.55
  Q 840.03 808.64 830.67 801.05
  A 1.61 1.52 -88.3 0 1 830.36 800.70
  L 825.81 793.53
  A 1.40 1.40 0.0 0 0 824.06 793.00
  L 809.25 799.50
  A 1.98 1.97 -24.9 0 0 808.27 802.18
  Q 815.40 816.64 831.31 820.45
  Q 842.72 823.17 849.04 822.95
  A 6.54 6.00 12.5 0 0 849.95 822.85
  Q 855.25 821.90 855.79 821.84
  C 864.57 820.91 874.79 815.61 879.34 807.67
  Q 886.34 795.43 879.87 781.65
  C 877.14 775.83 869.89 771.58 864.01 769.75
  Q 856.53 767.43 841.38 763.26
  C 838.19 762.39 834.56 760.83 832.99 758.32
  Q 830.86 754.93 831.45 752.90"
/>
<path stroke="#d05114" vector-effect="non-scaling-stroke" d="
  M 669.52 780.73
  Q 668.38 779.77 666.75 779.71
  C 656.12 779.34 636.50 778.37 634.81 793.40
  Q 634.36 797.37 636.38 800.47
  C 641.47 808.27 651.61 808.03 659.25 804.43
  Q 668.68 799.97 669.77 789.22
  Q 670.12 785.84 669.94 781.61
  A 1.23 1.23 0.0 0 0 669.52 780.73"
/>
</g>
<path fill="#cc3d05" d="
  M 455.2773 106.6644
  A 24.10 23.78 -91.1 0 1 479.5156 130.3035
  A 24.10 23.78 -91.1 0 1 456.2027 154.8556
  A 24.10 23.78 -91.1 0 1 431.9644 131.2165
  A 24.10 23.78 -91.1 0 1 455.2773 106.6644
  Z
  M 456.0145 108.1817
  A 22.47 22.19 -89.3 0 0 433.5517 130.3789
  A 22.47 22.19 -89.3 0 0 455.4655 153.1183
  A 22.47 22.19 -89.3 0 0 477.9283 130.9211
  A 22.47 22.19 -89.3 0 0 456.0145 108.1817
  Z"
/>
<ellipse fill="#d46522" cx="0.00" cy="0.00" transform="translate(455.74,130.65) rotate(-89.3)" rx="22.47" ry="22.19"/>
<path fill="#cc3d05" d="
  M 489.6756 171.7712
  A 18.78 18.44 -178.6 0 1 508.9005 153.7955
  A 18.78 18.44 -178.6 0 1 527.2244 172.6888
  A 18.78 18.44 -178.6 0 1 507.9995 190.6645
  A 18.78 18.44 -178.6 0 1 489.6756 171.7712
  Z
  M 491.2449 170.4185
  A 17.33 16.92 -174.0 0 0 506.7114 189.0573
  A 17.33 16.92 -174.0 0 0 525.7151 174.0415
  A 17.33 16.92 -174.0 0 0 510.2486 155.4027
  A 17.33 16.92 -174.0 0 0 491.2449 170.4185
  Z"
/>
<ellipse fill="#d46522" cx="0.00" cy="0.00" transform="translate(508.48,172.23) rotate(-174.0)" rx="17.33" ry="16.92"/>
<path fill="#cc3d05" d="
  M 304.68 467.99
  Q 298.73 468.97 292.49 467.72
  Q 287.75 466.77 282.16 466.87
  A 1.98 1.98 0.0 0 0 280.30 468.25
  Q 279.36 471.17 281.17 473.84
  Q 285.60 480.36 291.95 486.80
  Q 301.24 496.23 310.36 504.19
  Q 310.59 504.39 313.43 507.03
  C 317.66 510.96 323.18 514.43 327.76 518.07
  C 334.55 523.49 341.20 527.13 348.66 531.62
  A 1.80 1.79 -65.6 0 1 349.44 533.70
  Q 349.03 535.02 348.29 536.30
  Q 341.13 548.65 338.53 554.48
  Q 333.85 564.97 332.55 573.79
  Q 329.78 592.52 337.17 609.30
  Q 340.84 617.64 348.86 626.41
  C 352.01 629.85 356.42 632.46 360.15 635.37
  A 10.27 9.52 -9.3 0 0 361.40 636.20
  Q 361.49 636.26 366.28 638.48
  Q 370.09 640.24 372.00 640.60
  C 375.01 641.18 379.21 642.52 383.00 642.81
  Q 386.08 643.06 387.75 643.05
  Q 528.85 642.95 564.25 642.95
  Q 591.00 642.94 591.04 642.94
  Q 598.24 643.33 605.62 641.54
  Q 620.31 637.97 631.73 627.63
  Q 635.84 623.92 639.40 618.65
  Q 644.09 611.73 645.48 608.49
  C 648.91 600.46 651.54 590.89 650.78 582.00
  Q 650.20 575.25 649.69 572.02
  Q 649.19 568.86 646.87 562.05
  Q 645.18 557.09 642.81 552.51
  C 639.48 546.08 637.36 541.44 633.86 535.60
  Q 631.89 532.30 626.51 522.79
  C 621.71 514.30 615.93 505.70 611.90 498.58
  A 0.45 0.38 13.7 0 0 611.82 498.47
  L 609.11 495.32
  A 0.78 0.78 0.0 0 1 609.12 494.28
  Q 609.77 493.56 610.26 492.27
  A 2.01 1.95 -9.9 0 1 610.89 491.40
  C 614.19 488.76 617.31 486.96 620.22 484.33
  Q 630.68 474.91 636.70 469.87
  Q 641.01 466.27 646.33 468.68
  Q 649.09 469.93 650.56 472.21
  C 655.87 480.45 660.48 488.08 666.74 496.10
  C 675.55 507.37 686.82 516.95 698.38 524.37
  Q 709.44 531.46 723.94 535.55
  Q 725.66 536.03 735.42 538.16
  A 2.33 1.84 -20.7 0 1 735.89 538.31
  Q 738.34 539.41 741.26 539.34
  A 0.52 0.51 77.0 0 0 741.71 538.61
  Q 737.77 530.01 735.39 523.40
  Q 730.27 509.13 727.17 495.92
  Q 723.38 479.79 721.71 460.78
  Q 720.92 451.81 721.22 444.20
  Q 721.69 431.99 722.20 427.63
  Q 722.70 423.30 722.95 420.89
  Q 723.64 414.24 723.65 414.13
  Q 726.71 395.24 732.24 376.76
  C 734.22 370.11 737.43 362.88 739.33 357.17
  A 1.48 1.48 0.0 0 0 737.58 355.26
  Q 726.72 357.86 721.46 359.45
  C 712.38 362.18 701.65 367.78 692.80 374.33
  Q 678.22 385.12 665.83 400.83
  Q 656.13 413.14 651.90 419.80
  C 649.29 423.89 647.03 426.04 642.37 425.39
  Q 640.01 425.06 636.19 421.53
  Q 633.55 419.09 630.62 416.56
  A 3.66 2.94 9.0 0 1 630.13 416.02
  Q 628.04 413.13 624.95 410.91
  A 1.95 1.55 1.6 0 1 624.63 410.64
  Q 613.22 399.20 605.77 392.23
  Q 605.56 392.03 603.76 390.07
  C 601.57 387.68 598.72 385.76 596.62 383.61
  C 590.80 377.65 584.06 371.81 579.21 366.97
  Q 573.77 361.55 571.80 358.78
  Q 562.40 345.57 559.22 329.59
  Q 557.71 321.97 557.96 305.83
  Q 558.36 280.24 557.97 244.97
  A 1.40 1.40 0.0 0 1 559.31 243.56
  Q 565.61 243.27 570.74 243.40
  C 577.70 243.58 584.40 239.95 585.68 232.80
  Q 586.64 227.42 584.92 223.41
  A 1.84 1.45 -83.3 0 0 584.76 223.15
  L 582.00 219.53
  A 1.17 0.52 24.0 0 0 581.91 219.43
  C 576.03 214.24 568.24 215.97 561.09 215.88
  C 534.56 215.53 510.70 216.01 482.25 215.82
  Q 455.05 215.63 431.24 215.96
  Q 422.53 216.08 418.60 223.43
  A 2.53 2.44 63.2 0 0 418.30 224.40
  Q 417.66 230.77 417.89 232.13
  C 418.94 238.53 424.01 243.34 430.75 243.35
  Q 434.16 243.35 441.49 243.13
  C 444.22 243.05 447.55 243.08 447.56 246.25
  Q 447.58 255.68 447.59 272.27
  Q 447.60 288.89 447.86 305.51
  Q 448.22 328.61 430.05 341.60
  A 5.60 4.67 9.6 0 1 429.21 342.09
  C 420.79 346.01 411.15 348.00 402.88 350.92
  Q 393.87 354.10 390.19 355.67
  Q 369.50 364.50 349.66 376.71
  Q 339.85 382.75 330.39 390.10
  Q 319.80 398.33 312.42 405.18
  C 301.75 415.08 292.13 424.88 282.38 437.13
  Q 279.29 441.00 279.64 445.98
  C 279.87 449.29 282.79 450.66 285.62 452.12
  Q 295.85 457.38 305.89 464.10
  Q 307.12 464.93 306.44 466.01
  C 301.86 462.81 295.77 459.96 292.18 457.62
  Q 289.52 455.90 281.60 451.63
  C 275.90 448.56 277.43 441.95 280.54 437.54
  Q 284.50 431.92 290.81 424.80
  Q 307.72 405.71 328.40 389.67
  Q 351.95 371.40 380.84 358.09
  Q 399.61 349.44 419.73 344.11
  Q 425.50 342.58 428.59 340.64
  C 440.29 333.30 446.21 320.36 446.10 306.75
  Q 445.82 272.09 445.90 245.83
  A 0.86 0.85 89.3 0 0 445.03 244.97
  Q 443.22 245.01 433.48 245.04
  Q 427.89 245.06 424.98 243.67
  C 418.69 240.66 415.41 234.26 416.10 227.55
  C 416.92 219.56 423.80 214.14 431.62 214.13
  Q 477.80 214.03 568.97 214.07
  Q 575.68 214.07 578.59 215.49
  Q 583.75 218.00 586.18 223.12
  C 590.03 231.24 586.90 239.25 579.21 243.43
  Q 576.32 244.99 571.07 245.02
  Q 564.10 245.05 559.98 244.93
  A 0.61 0.60 0.9 0 0 559.35 245.53
  Q 559.26 288.41 559.43 313.75
  Q 559.48 321.39 561.05 330.00
  Q 563.60 344.00 572.18 356.72
  Q 576.05 362.46 588.57 374.04
  Q 605.22 389.43 636.59 420.19
  Q 637.67 421.24 641.35 423.83
  A 1.16 1.12 -26.8 0 0 642.00 424.03
  L 645.69 424.03
  A 1.48 1.44 25.6 0 0 646.58 423.73
  Q 649.35 421.57 650.47 419.72
  C 657.59 407.98 666.30 397.25 675.14 387.89
  Q 681.18 381.48 690.05 374.55
  Q 707.19 361.16 727.78 356.10
  Q 735.69 354.16 742.23 353.32
  A 0.47 0.46 -81.1 0 1 742.71 353.98
  Q 738.84 362.26 736.07 370.27
  Q 723.91 405.42 722.91 441.90
  Q 722.49 457.49 724.85 474.38
  Q 727.12 490.70 731.52 506.24
  Q 736.68 524.48 744.48 540.24
  A 0.61 0.61 0.0 0 1 743.87 541.12
  Q 725.97 539.13 710.68 532.58
  C 694.78 525.77 679.60 513.72 668.34 500.44
  Q 660.74 491.47 652.70 478.44
  Q 648.50 471.62 646.31 470.35
  Q 641.12 467.30 635.62 472.73
  Q 634.54 473.79 621.24 485.55
  C 618.24 488.20 614.31 491.02 611.21 493.13
  A 0.91 0.90 -33.7 0 0 610.96 494.37
  Q 624.67 515.71 638.42 540.56
  C 642.64 548.19 647.92 558.54 650.46 568.27
  C 655.60 587.98 650.60 608.14 637.50 623.70
  Q 624.62 639.01 604.28 643.56
  Q 598.75 644.79 588.62 644.76
  Q 498.62 644.48 397.71 644.80
  Q 382.19 644.85 375.95 643.38
  Q 358.04 639.17 345.74 625.01
  C 332.62 609.90 327.27 589.99 331.52 570.24
  Q 333.52 560.93 338.42 551.14
  Q 342.95 542.11 347.96 533.74
  A 0.69 0.69 0.0 0 0 347.70 532.78
  Q 338.35 527.72 329.72 521.52
  Q 306.01 504.49 286.07 482.59
  C 284.02 480.34 281.44 477.07 279.71 474.40
  C 277.29 470.65 277.10 466.52 282.28 464.97
  A 1.77 1.76 40.7 0 1 282.95 464.92
  L 304.68 467.99
  Z"
/>
<path fill="#d46522" d="
  M 304.68 467.99
  Q 306.00 467.77 307.93 468.11
  A 0.25 0.25 0.0 0 0 308.15 467.68
  L 306.44 466.01
  Q 307.12 464.93 305.89 464.10
  Q 295.85 457.38 285.62 452.12
  C 282.79 450.66 279.87 449.29 279.64 445.98
  Q 279.29 441.00 282.38 437.13
  C 292.13 424.88 301.75 415.08 312.42 405.18
  Q 319.80 398.33 330.39 390.10
  Q 339.85 382.75 349.66 376.71
  Q 369.50 364.50 390.19 355.67
  Q 393.87 354.10 402.88 350.92
  C 411.15 348.00 420.79 346.01 429.21 342.09
  A 5.60 4.67 9.6 0 0 430.05 341.60
  Q 448.22 328.61 447.86 305.51
  Q 447.60 288.89 447.59 272.27
  Q 447.58 255.68 447.56 246.25
  C 447.55 243.08 444.22 243.05 441.49 243.13
  Q 434.16 243.35 430.75 243.35
  C 424.01 243.34 418.94 238.53 417.89 232.13
  Q 417.66 230.77 418.30 224.40
  A 2.53 2.44 63.2 0 1 418.60 223.43
  Q 422.53 216.08 431.24 215.96
  Q 455.05 215.63 482.25 215.82
  C 510.70 216.01 534.56 215.53 561.09 215.88
  C 568.24 215.97 576.03 214.24 581.91 219.43
  A 1.17 0.52 24.0 0 1 582.00 219.53
  L 584.76 223.15
  A 1.84 1.45 -83.3 0 1 584.92 223.41
  Q 586.64 227.42 585.68 232.80
  C 584.40 239.95 577.70 243.58 570.74 243.40
  Q 565.61 243.27 559.31 243.56
  A 1.40 1.40 0.0 0 0 557.97 244.97
  Q 558.36 280.24 557.96 305.83
  Q 557.71 321.97 559.22 329.59
  Q 562.40 345.57 571.80 358.78
  Q 573.77 361.55 579.21 366.97
  C 584.06 371.81 590.80 377.65 596.62 383.61
  C 598.72 385.76 601.57 387.68 603.76 390.07
  Q 605.56 392.03 605.77 392.23
  Q 613.22 399.20 624.63 410.64
  A 1.95 1.55 1.6 0 0 624.95 410.91
  Q 628.04 413.13 630.13 416.02
  A 3.66 2.94 9.0 0 0 630.62 416.56
  Q 633.55 419.09 636.19 421.53
  Q 640.01 425.06 642.37 425.39
  C 647.03 426.04 649.29 423.89 651.90 419.80
  Q 656.13 413.14 665.83 400.83
  Q 678.22 385.12 692.80 374.33
  C 701.65 367.78 712.38 362.18 721.46 359.45
  Q 726.72 357.86 737.58 355.26
  A 1.48 1.48 0.0 0 1 739.33 357.17
  C 737.43 362.88 734.22 370.11 732.24 376.76
  Q 726.71 395.24 723.65 414.13
  Q 723.64 414.24 722.95 420.89
  Q 722.70 423.30 722.20 427.63
  Q 721.69 431.99 721.22 444.20
  Q 720.92 451.81 721.71 460.78
  Q 723.38 479.79 727.17 495.92
  Q 730.27 509.13 735.39 523.40
  Q 737.77 530.01 741.71 538.61
  A 0.52 0.51 77.0 0 1 741.26 539.34
  Q 738.34 539.41 735.89 538.31
  A 2.33 1.84 -20.7 0 0 735.42 538.16
  Q 725.66 536.03 723.94 535.55
  Q 709.44 531.46 698.38 524.37
  C 686.82 516.95 675.55 507.37 666.74 496.10
  C 660.48 488.08 655.87 480.45 650.56 472.21
  Q 649.09 469.93 646.33 468.68
  Q 641.01 466.27 636.70 469.87
  Q 630.68 474.91 620.22 484.33
  C 617.31 486.96 614.19 488.76 610.89 491.40
  A 2.01 1.95 -9.9 0 0 610.26 492.27
  Q 609.77 493.56 609.12 494.28
  A 0.78 0.78 0.0 0 0 609.11 495.32
  L 611.82 498.47
  A 0.45 0.38 13.7 0 1 611.90 498.58
  C 615.93 505.70 621.71 514.30 626.51 522.79
  Q 631.89 532.30 633.86 535.60
  C 637.36 541.44 639.48 546.08 642.81 552.51
  Q 645.18 557.09 646.87 562.05
  Q 649.19 568.86 649.69 572.02
  Q 650.20 575.25 650.78 582.00
  C 651.54 590.89 648.91 600.46 645.48 608.49
  Q 644.09 611.73 639.40 618.65
  Q 635.84 623.92 631.73 627.63
  Q 620.31 637.97 605.62 641.54
  Q 598.24 643.33 591.04 642.94
  Q 591.00 642.94 564.25 642.95
  Q 528.85 642.95 387.75 643.05
  Q 386.08 643.06 383.00 642.81
  C 379.21 642.52 375.01 641.18 372.00 640.60
  Q 370.09 640.24 366.28 638.48
  Q 361.49 636.26 361.40 636.20
  A 10.27 9.52 -9.3 0 1 360.15 635.37
  C 356.42 632.46 352.01 629.85 348.86 626.41
  Q 340.84 617.64 337.17 609.30
  Q 329.78 592.52 332.55 573.79
  Q 333.85 564.97 338.53 554.48
  Q 341.13 548.65 348.29 536.30
  Q 349.03 535.02 349.44 533.70
  A 1.80 1.79 -65.6 0 0 348.66 531.62
  C 341.20 527.13 334.55 523.49 327.76 518.07
  C 323.18 514.43 317.66 510.96 313.43 507.03
  Q 310.59 504.39 310.36 504.19
  Q 301.24 496.23 291.95 486.80
  Q 285.60 480.36 281.17 473.84
  Q 279.36 471.17 280.30 468.25
  A 1.98 1.98 0.0 0 1 282.16 466.87
  Q 287.75 466.77 292.49 467.72
  Q 298.73 468.97 304.68 467.99
  Z
  M 457.02 354.08
  L 456.85 354.46
  A 0.53 0.53 0.0 0 0 457.25 355.20
  Q 458.92 355.48 460.56 355.16
  Q 460.47 356.72 462.14 356.83
  Q 509.97 359.97 550.80 384.78
  Q 552.33 385.71 553.06 384.32
  L 556.40 386.18
  A 0.39 0.38 -73.9 0 0 556.97 385.86
  Q 557.00 385.35 556.78 385.63
  Q 557.05 385.08 557.12 384.60
  A 1.13 1.11 27.8 0 0 556.84 383.72
  Q 551.16 377.46 547.42 371.09
  Q 531.73 344.38 530.69 312.98
  Q 529.60 280.20 530.17 248.75
  Q 530.22 245.89 528.91 243.79
  A 0.92 0.91 -16.3 0 0 528.14 243.37
  Q 504.56 243.28 479.18 243.38
  Q 477.23 243.39 476.54 243.90
  Q 475.59 244.61 475.50 246.33
  Q 475.19 251.90 475.38 259.61
  C 475.73 274.24 475.24 288.60 475.39 303.87
  C 475.44 307.87 474.98 311.57 475.02 314.35
  Q 475.06 317.71 474.00 322.10
  Q 471.94 330.66 469.99 334.53
  Q 466.73 341.01 461.52 347.77
  Q 459.82 349.96 456.98 352.07
  Q 456.29 352.59 456.36 353.46
  Q 456.42 354.12 457.02 354.08
  Z
  M 412.94 386.17
  Q 414.20 392.02 416.02 397.65
  Q 418.88 406.47 419.43 409.02
  Q 421.12 417.04 422.51 427.11
  C 423.37 433.30 423.06 437.87 423.00 444.82
  Q 422.93 452.29 422.16 458.10
  Q 417.62 491.87 399.59 521.17
  A 0.78 0.78 0.0 0 0 399.62 522.03
  L 400.32 523.01
  Q 399.04 524.13 398.81 525.45
  A 0.27 0.27 0.0 0 0 399.16 525.76
  L 402.44 524.62
  Q 405.39 525.04 408.24 522.75
  Q 418.10 514.83 423.27 508.66
  C 426.21 505.16 428.17 502.23 431.44 497.48
  C 439.70 485.52 444.33 470.58 445.71 456.08
  Q 446.64 446.22 444.59 435.61
  Q 440.68 415.33 429.30 399.44
  Q 424.80 393.15 422.62 390.43
  Q 420.79 388.16 415.84 383.94
  A 1.09 1.07 -27.7 0 0 415.00 383.69
  L 413.32 383.89
  L 412.31 383.10
  A 0.18 0.18 0.0 0 0 412.04 383.33
  Q 412.95 385.00 412.94 386.17
  Z
  M 375.76 428.23
  A 17.90 17.90 0.0 0 0 357.86 410.33
  A 17.90 17.90 0.0 0 0 339.96 428.23
  A 17.90 17.90 0.0 0 0 357.86 446.13
  A 17.90 17.90 0.0 0 0 375.76 428.23
  Z
  M 483.77 542.20
  Q 483.56 542.47 483.55 542.78
  L 482.88 544.30
  A 0.89 0.87 38.9 0 0 482.98 545.17
  Q 488.83 553.24 493.70 561.56
  Q 495.56 564.73 499.52 573.30
  C 500.84 576.17 501.17 579.02 501.46 581.22
  A 2.31 2.30 85.4 0 1 499.24 583.83
  L 492.72 584.00
  A 16.49 16.26 -38.5 0 1 488.39 583.54
  C 482.07 581.99 476.57 581.24 470.42 579.32
  Q 450.60 573.13 432.43 562.99
  Q 430.76 562.06 429.28 561.43
  Q 426.62 560.31 425.99 560.22
  Q 406.65 557.36 387.03 550.00
  C 383.04 548.51 379.15 545.65 375.82 546.19
  Q 374.87 546.35 373.49 549.02
  C 371.25 553.33 365.89 560.71 363.50 565.97
  C 361.10 571.24 358.34 577.20 358.39 582.51
  Q 358.58 601.17 373.43 611.18
  C 377.61 614.00 383.27 615.92 388.25 616.26
  Q 395.46 616.75 409.07 616.57
  Q 419.68 616.42 429.87 615.72
  Q 440.14 615.01 449.74 615.63
  Q 459.60 616.27 469.60 616.38
  Q 501.43 616.73 526.32 615.84
  Q 538.56 615.40 549.26 615.74
  Q 571.67 616.47 572.19 616.49
  Q 578.78 616.80 580.82 616.68
  C 588.00 616.23 595.01 617.11 600.90 614.91
  C 613.26 610.28 621.43 600.85 623.47 587.59
  C 624.86 578.51 621.57 570.50 617.63 562.72
  Q 615.52 558.55 614.02 556.01
  Q 605.99 542.39 595.24 524.81
  Q 591.71 519.04 586.80 511.98
  Q 585.78 510.52 584.29 510.36
  A 1.43 1.34 -56.2 0 0 583.42 510.56
  Q 565.91 521.23 551.43 527.15
  Q 533.68 534.39 511.59 538.33
  Q 500.81 540.25 498.06 540.02
  Q 497.66 539.99 496.96 540.26
  A 2.76 2.72 35.1 0 1 495.88 540.44
  Q 489.65 540.25 483.77 542.20
  Z"
/>
<path fill="#cc3d05" d="
  M 556.78 385.63
  Q 550.36 379.33 544.83 369.43
  Q 534.60 351.16 531.46 333.54
  Q 530.46 327.95 529.81 323.51
  Q 528.95 317.70 528.88 313.41
  Q 528.45 288.01 528.23 245.62
  A 0.62 0.62 0.0 0 0 527.61 245.00
  L 477.44 245.00
  A 0.36 0.36 0.0 0 0 477.08 245.36
  Q 477.05 248.98 477.14 306.75
  Q 477.17 330.17 463.43 347.93
  Q 460.67 351.49 457.02 354.08
  Q 456.42 354.12 456.36 353.46
  Q 456.29 352.59 456.98 352.07
  Q 459.82 349.96 461.52 347.77
  Q 466.73 341.01 469.99 334.53
  Q 471.94 330.66 474.00 322.10
  Q 475.06 317.71 475.02 314.35
  C 474.98 311.57 475.44 307.87 475.39 303.87
  C 475.24 288.60 475.73 274.24 475.38 259.61
  Q 475.19 251.90 475.50 246.33
  Q 475.59 244.61 476.54 243.90
  Q 477.23 243.39 479.18 243.38
  Q 504.56 243.28 528.14 243.37
  A 0.92 0.91 -16.3 0 1 528.91 243.79
  Q 530.22 245.89 530.17 248.75
  Q 529.60 280.20 530.69 312.98
  Q 531.73 344.38 547.42 371.09
  Q 551.16 377.46 556.84 383.72
  A 1.13 1.11 27.8 0 1 557.12 384.60
  Q 557.05 385.08 556.78 385.63
  Z"
/>
<path fill="#cc3d05" d="
  M 553.06 384.32
  Q 552.33 385.71 550.80 384.78
  Q 509.97 359.97 462.14 356.83
  Q 460.47 356.72 460.56 355.16
  C 493.09 356.59 525.64 367.32 553.06 384.32
  Z"
/>
<path fill="#cc3d05" d="
  M 402.44 524.62
  Q 419.14 513.84 429.64 497.80
  Q 440.49 481.22 443.34 462.16
  C 447.68 433.22 435.46 403.15 413.32 383.89
  L 415.00 383.69
  A 1.09 1.07 -27.7 0 1 415.84 383.94
  Q 420.79 388.16 422.62 390.43
  Q 424.80 393.15 429.30 399.44
  Q 440.68 415.33 444.59 435.61
  Q 446.64 446.22 445.71 456.08
  C 444.33 470.58 439.70 485.52 431.44 497.48
  C 428.17 502.23 426.21 505.16 423.27 508.66
  Q 418.10 514.83 408.24 522.75
  Q 405.39 525.04 402.44 524.62
  Z"
/>
<path fill="#cc3d05" d="
  M 400.32 523.01
  L 399.62 522.03
  A 0.78 0.78 0.0 0 1 399.59 521.17
  Q 417.62 491.87 422.16 458.10
  Q 422.93 452.29 423.00 444.82
  C 423.06 437.87 423.37 433.30 422.51 427.11
  Q 421.12 417.04 419.43 409.02
  Q 418.88 406.47 416.02 397.65
  Q 414.20 392.02 412.94 386.17
  Q 414.50 388.28 415.59 391.14
  Q 429.53 427.89 422.60 465.87
  Q 417.10 495.99 400.32 523.01
  Z"
/>
<path fill="#cc3d05" d="
  M 375.76 428.23
  A 17.90 17.90 0.0 0 1 357.86 446.13
  A 17.90 17.90 0.0 0 1 339.96 428.23
  A 17.90 17.90 0.0 0 1 357.86 410.33
  A 17.90 17.90 0.0 0 1 375.76 428.23
  Z
  M 363.2700 412.7933
  A 16.42 16.10 -70.8 0 0 342.6655 423.0052
  A 16.42 16.10 -70.8 0 0 352.4700 443.8067
  A 16.42 16.10 -70.8 0 0 373.0745 433.5948
  A 16.42 16.10 -70.8 0 0 363.2700 412.7933
  Z"
/>
<path fill="#cc3d05" d="
  M 483.55 542.78
  Q 484.31 544.52 484.91 545.33
  Q 494.24 557.75 500.88 572.17
  C 502.38 575.45 503.38 578.68 503.24 582.29
  C 503.14 584.84 499.65 585.53 497.51 585.50
  Q 487.11 585.35 475.66 582.52
  Q 460.24 578.72 440.92 569.19
  Q 435.22 566.38 429.31 563.42
  Q 426.23 561.88 422.87 561.39
  Q 403.90 558.59 385.38 551.12
  Q 380.98 549.35 377.40 547.23
  A 1.00 1.00 0.0 0 0 376.03 547.58
  Q 367.55 561.88 367.53 561.91
  Q 365.65 564.93 363.77 569.22
  C 361.50 574.40 359.73 579.74 360.15 585.00
  C 361.20 598.01 368.17 608.54 380.40 612.83
  Q 386.70 615.04 391.50 615.04
  Q 523.22 615.05 584.27 615.01
  Q 593.39 615.00 598.12 613.91
  C 615.86 609.84 625.89 591.61 620.76 574.46
  Q 618.73 567.70 615.25 561.48
  Q 602.88 539.38 586.82 514.68
  Q 585.85 513.18 584.66 512.09
  A 0.64 0.63 -39.6 0 0 583.88 512.02
  Q 545.53 536.72 500.02 541.79
  Q 495.41 542.31 483.77 542.20
  Q 489.65 540.25 495.88 540.44
  A 2.76 2.72 35.1 0 0 496.96 540.26
  Q 497.66 539.99 498.06 540.02
  Q 500.81 540.25 511.59 538.33
  Q 533.68 534.39 551.43 527.15
  Q 565.91 521.23 583.42 510.56
  A 1.43 1.34 -56.2 0 1 584.29 510.36
  Q 585.78 510.52 586.80 511.98
  Q 591.71 519.04 595.24 524.81
  Q 605.99 542.39 614.02 556.01
  Q 615.52 558.55 617.63 562.72
  C 621.57 570.50 624.86 578.51 623.47 587.59
  C 621.43 600.85 613.26 610.28 600.90 614.91
  C 595.01 617.11 588.00 616.23 580.82 616.68
  Q 578.78 616.80 572.19 616.49
  Q 571.67 616.47 549.26 615.74
  Q 538.56 615.40 526.32 615.84
  Q 501.43 616.73 469.60 616.38
  Q 459.60 616.27 449.74 615.63
  Q 440.14 615.01 429.87 615.72
  Q 419.68 616.42 409.07 616.57
  Q 395.46 616.75 388.25 616.26
  C 383.27 615.92 377.61 614.00 373.43 611.18
  Q 358.58 601.17 358.39 582.51
  C 358.34 577.20 361.10 571.24 363.50 565.97
  C 365.89 560.71 371.25 553.33 373.49 549.02
  Q 374.87 546.35 375.82 546.19
  C 379.15 545.65 383.04 548.51 387.03 550.00
  Q 406.65 557.36 425.99 560.22
  Q 426.62 560.31 429.28 561.43
  Q 430.76 562.06 432.43 562.99
  Q 450.60 573.13 470.42 579.32
  C 476.57 581.24 482.07 581.99 488.39 583.54
  A 16.49 16.26 -38.5 0 0 492.72 584.00
  L 499.24 583.83
  A 2.31 2.30 85.4 0 0 501.46 581.22
  C 501.17 579.02 500.84 576.17 499.52 573.30
  Q 495.56 564.73 493.70 561.56
  Q 488.83 553.24 482.98 545.17
  A 0.89 0.87 38.9 0 1 482.88 544.30
  L 483.55 542.78
  Z"
/>
<path fill="#cc3d05" d="
  M 732.86 739.90
  L 731.31 738.30
  A 0.98 0.93 24.6 0 1 731.05 737.65
  L 731.05 696.89
  A 1.05 1.05 0.0 0 0 730.00 695.84
  L 709.69 695.84
  A 1.07 1.07 0.0 0 0 708.62 696.91
  L 708.62 819.26
  A 0.93 0.93 0.0 0 0 709.55 820.19
  L 728.03 820.19
  A 1.37 1.37 0.0 0 0 729.36 819.14
  L 730.92 812.47
  L 731.04 821.53
  A 0.42 0.41 -90.0 0 1 730.63 821.95
  L 707.40 821.95
  A 0.33 0.33 0.0 0 1 707.07 821.62
  L 707.07 694.61
  A 0.54 0.53 -90.0 0 1 707.60 694.07
  L 732.63 694.07
  A 0.28 0.28 0.0 0 1 732.91 694.35
  L 732.86 739.90
  Z"
/>
<path fill="#d46522" d="
  M 732.86 739.90
  L 733.29 739.95
  Q 733.71 740.47 734.18 740.58
  Q 734.63 740.70 735.10 740.20
  Q 740.87 734.13 748.91 731.12
  C 751.36 730.20 753.49 730.08 755.55 729.37
  A 3.99 3.97 -56.4 0 1 756.43 729.19
  Q 771.34 728.12 782.65 736.07
  C 790.43 741.54 796.15 750.49 798.67 759.33
  Q 801.36 768.77 800.62 780.32
  Q 800.03 789.50 796.74 797.13
  C 787.97 817.40 766.39 826.92 745.37 820.15
  Q 738.99 818.09 734.56 813.10
  C 734.00 812.47 733.06 812.09 732.28 812.24
  Q 731.83 811.80 731.25 811.85
  Q 731.01 811.88 730.92 812.47
  L 729.36 819.14
  A 1.37 1.37 0.0 0 1 728.03 820.19
  L 709.55 820.19
  A 0.93 0.93 0.0 0 1 708.62 819.26
  L 708.62 696.91
  A 1.07 1.07 0.0 0 1 709.69 695.84
  L 730.00 695.84
  A 1.05 1.05 0.0 0 1 731.05 696.89
  L 731.05 737.65
  A 0.98 0.93 24.6 0 0 731.31 738.30
  L 732.86 739.90
  Z
  M 739.35 798.66
  Q 739.67 798.85 742.58 800.62
  C 749.60 804.90 758.85 805.18 766.08 800.68
  C 774.05 795.72 778.10 786.40 777.94 777.01
  C 777.83 770.27 776.35 761.28 771.87 756.15
  Q 768.49 752.29 767.20 751.56
  Q 757.71 746.15 747.40 748.78
  C 739.87 750.70 734.75 757.51 732.83 764.76
  Q 728.95 779.43 734.84 792.93
  Q 735.29 793.96 738.47 797.90
  A 3.24 3.22 -4.0 0 0 739.35 798.66
  Z"
/>
<path fill="#cc3d05" d="
  M 528.14 696.09
  L 552.59 696.09
  A 0.50 0.50 0.0 0 1 553.09 696.59
  L 553.09 797.63
  A 0.50 0.50 0.0 0 0 553.59 798.13
  L 602.72 798.13
  A 0.50 0.50 0.0 0 1 603.22 798.63
  L 603.22 821.43
  A 0.50 0.50 0.0 0 1 602.72 821.93
  L 528.14 821.93
  A 0.50 0.50 0.0 0 1 527.64 821.43
  L 527.64 696.59
  A 0.50 0.50 0.0 0 1 528.14 696.09
  Z
  M 552.32 798.71
  Q 551.69 793.17 551.72 786.79
  Q 551.84 755.82 551.69 698.71
  A 0.90 0.90 0.0 0 0 550.79 697.81
  L 530.18 697.81
  A 1.41 1.41 0.0 0 0 528.77 699.22
  L 528.77 818.95
  A 1.30 1.30 0.0 0 0 530.07 820.25
  L 600.18 820.25
  A 1.60 1.60 0.0 0 0 601.78 818.65
  L 601.78 801.01
  A 1.09 1.09 0.0 0 0 600.69 799.92
  L 553.68 799.92
  A 1.37 1.37 0.0 0 1 552.32 798.71
  Z"
/>
<path fill="#cc3d05" d="
  M 165.01 720.90
  Q 168.67 719.72 172.76 719.68
  Q 194.18 719.50 213.91 719.72
  A 1.76 1.75 0.2 0 0 215.68 717.97
  L 215.68 700.51
  A 1.50 1.49 -0.0 0 0 214.18 699.02
  L 141.80 699.02
  A 1.69 1.69 0.0 0 0 140.11 700.71
  L 140.11 818.88
  A 1.49 1.48 -90.0 0 0 141.59 820.37
  L 162.39 820.37
  A 1.57 1.56 -90.0 0 0 163.95 818.80
  Q 163.99 789.20 163.92 774.05
  Q 163.90 771.73 166.24 771.67
  Q 186.02 771.14 208.15 771.44
  A 1.83 1.83 0.0 0 0 210.01 769.61
  L 210.01 752.10
  A 1.13 1.13 0.0 0 0 208.88 750.97
  L 169.51 750.97
  A 0.27 0.26 87.6 0 1 169.25 750.72
  L 169.23 750.47
  A 0.43 0.43 0.0 0 1 169.65 750.04
  Q 177.31 749.93 206.95 749.89
  Q 208.53 749.89 208.74 749.09
  L 210.61 749.10
  A 0.74 0.74 0.0 0 1 211.34 749.84
  L 211.34 772.62
  A 0.51 0.50 -0.0 0 1 210.83 773.12
  L 165.64 773.12
  A 0.50 0.50 0.0 0 0 165.14 773.62
  L 165.14 821.74
  A 0.22 0.22 0.0 0 1 164.92 821.96
  L 139.21 821.96
  A 0.37 0.37 0.0 0 1 138.84 821.59
  L 138.84 697.73
  A 0.56 0.55 0.0 0 1 139.40 697.18
  L 216.57 697.18
  A 0.50 0.50 0.0 0 1 217.07 697.68
  L 217.07 720.31
  A 0.58 0.58 0.0 0 1 216.49 720.89
  L 165.01 720.90
  Z"
/>
<path fill="#d46522" d="
  M 552.32 798.71
  A 1.37 1.37 0.0 0 0 553.68 799.92
  L 600.69 799.92
  A 1.09 1.09 0.0 0 1 601.78 801.01
  L 601.78 818.65
  A 1.60 1.60 0.0 0 1 600.18 820.25
  L 530.07 820.25
  A 1.30 1.30 0.0 0 1 528.77 818.95
  L 528.77 699.22
  A 1.41 1.41 0.0 0 1 530.18 697.81
  L 550.79 697.81
  A 0.90 0.90 0.0 0 1 551.69 698.71
  Q 551.84 755.82 551.72 786.79
  Q 551.69 793.17 552.32 798.71
  Z"
/>
<path fill="#d46522" d="
  M 165.01 720.90
  L 165.00 748.17
  A 0.91 0.91 0.0 0 0 165.91 749.08
  L 208.74 749.09
  Q 208.53 749.89 206.95 749.89
  Q 177.31 749.93 169.65 750.04
  A 0.43 0.43 0.0 0 0 169.23 750.47
  L 169.25 750.72
  A 0.27 0.26 87.6 0 0 169.51 750.97
  L 208.88 750.97
  A 1.13 1.13 0.0 0 1 210.01 752.10
  L 210.01 769.61
  A 1.83 1.83 0.0 0 1 208.15 771.44
  Q 186.02 771.14 166.24 771.67
  Q 163.90 771.73 163.92 774.05
  Q 163.99 789.20 163.95 818.80
  A 1.57 1.56 90.0 0 1 162.39 820.37
  L 141.59 820.37
  A 1.49 1.48 90.0 0 1 140.11 818.88
  L 140.11 700.71
  A 1.69 1.69 0.0 0 1 141.80 699.02
  L 214.18 699.02
  A 1.50 1.49 0.0 0 1 215.68 700.51
  L 215.68 717.97
  A 1.76 1.75 0.2 0 1 213.91 719.72
  Q 194.18 719.50 172.76 719.68
  Q 168.67 719.72 165.01 720.90
  Z"
/>
<path fill="#cc3d05" d="
  M 449.00 737.10
  Q 447.62 734.91 447.48 732.72
  A 1.16 1.16 0.0 0 0 446.32 731.63
  L 427.91 731.63
  A 1.03 1.02 -0.0 0 0 426.88 732.65
  L 426.88 819.84
  A 0.43 0.43 0.0 0 0 427.31 820.27
  L 448.10 820.27
  A 1.27 1.26 87.7 0 0 449.36 818.90
  Q 449.25 817.68 449.17 816.00
  Q 448.87 809.80 448.90 770.01
  C 448.91 756.45 456.14 746.79 470.80 748.70
  C 478.29 749.67 482.13 754.01 484.87 760.77
  Q 486.12 763.85 486.00 769.17
  C 485.85 776.03 485.44 781.37 485.72 788.10
  Q 485.80 790.11 485.66 793.33
  C 485.46 797.86 485.90 802.79 485.88 806.45
  Q 485.85 815.16 486.09 818.89
  A 1.49 1.48 87.9 0 0 487.57 820.27
  L 507.72 820.27
  A 0.85 0.85 0.0 0 0 508.57 819.41
  Q 508.36 800.59 508.11 765.81
  C 508.04 756.86 505.98 745.99 500.10 739.24
  Q 495.60 734.08 491.11 732.12
  Q 469.11 722.56 450.30 740.58
  Q 462.59 723.98 483.50 728.08
  Q 502.11 731.74 507.77 751.23
  Q 508.73 754.53 509.39 760.05
  Q 509.93 764.64 509.93 768.99
  Q 509.94 778.28 509.99 821.34
  A 0.61 0.61 0.0 0 1 509.38 821.95
  L 484.94 821.95
  A 0.52 0.52 0.0 0 1 484.42 821.42
  Q 484.77 801.18 484.54 771.51
  C 484.52 769.20 484.24 767.14 484.06 764.89
  Q 483.93 763.31 483.65 762.34
  Q 479.89 749.39 466.00 749.89
  C 458.12 750.17 452.38 756.27 451.24 763.72
  Q 450.82 766.47 450.86 774.52
  Q 450.94 792.80 450.92 821.63
  A 0.32 0.32 0.0 0 1 450.60 821.95
  L 425.63 821.95
  A 0.49 0.49 0.0 0 1 425.14 821.46
  L 425.14 730.22
  A 0.44 0.43 0.0 0 1 425.58 729.79
  L 448.59 729.79
  A 0.53 0.53 0.0 0 1 449.12 730.33
  L 449.00 737.10
  Z"
/>
<path fill="#cc3d05" d="
  M 408.86 821.70
  A 0.25 0.25 0.0 0 1 408.61 821.94
  L 383.77 821.94
  A 0.58 0.58 0.0 0 1 383.19 821.35
  Q 383.38 801.07 383.17 770.01
  Q 383.14 765.48 382.82 763.70
  Q 380.37 749.92 366.50 749.99
  Q 362.15 750.02 357.96 752.82
  C 352.63 756.39 350.94 763.34 350.95 769.75
  Q 351.01 800.79 350.96 821.38
  A 0.58 0.58 0.0 0 1 350.38 821.96
  L 325.34 821.96
  A 0.31 0.31 0.0 0 1 325.03 821.65
  L 325.03 731.04
  A 0.48 0.48 0.0 0 1 325.51 730.56
  L 348.35 730.56
  A 0.53 0.52 -90.0 0 1 348.87 731.09
  L 348.87 740.16
  A 0.35 0.35 0.0 0 0 349.50 740.37
  Q 354.36 733.97 362.74 730.27
  C 374.58 725.03 388.75 727.58 398.46 736.27
  Q 400.34 737.94 403.05 742.19
  C 406.99 748.36 408.47 756.89 408.60 764.01
  Q 408.97 784.29 408.86 821.70
  Z
  M 385.42 820.21
  L 405.85 820.21
  A 1.92 1.92 0.0 0 0 407.77 818.25
  Q 407.49 807.08 406.98 775.45
  Q 406.90 770.59 407.03 766.56
  C 407.39 755.07 404.11 741.02 394.02 734.75
  Q 376.15 723.64 358.00 734.50
  Q 354.23 736.76 350.96 740.55
  A 1.63 1.63 0.0 0 1 348.42 740.45
  L 347.33 738.96
  A 1.41 1.40 -59.4 0 1 347.07 737.93
  Q 347.47 735.03 346.60 732.66
  A 0.92 0.91 -10.1 0 0 345.74 732.06
  L 327.36 732.06
  A 0.52 0.51 0.0 0 0 326.84 732.57
  L 326.84 819.50
  A 0.77 0.76 -0.0 0 0 327.61 820.26
  L 348.25 820.26
  A 1.03 1.03 0.0 0 0 349.28 819.22
  Q 348.99 798.97 349.06 772.68
  C 349.07 768.46 349.43 763.56 350.69 760.23
  Q 354.59 749.97 364.32 748.89
  C 371.11 748.13 376.77 749.23 381.05 754.73
  Q 384.60 759.30 384.67 765.53
  Q 384.96 791.43 384.85 813.27
  C 384.84 815.36 383.81 817.21 384.14 819.14
  A 1.30 1.30 0.0 0 0 385.42 820.21
  Z"
/>
<path fill="#cc3d05" d="
  M 732.28 812.24
  C 733.06 812.09 734.00 812.47 734.56 813.10
  Q 738.99 818.09 745.37 820.15
  C 766.39 826.92 787.97 817.40 796.74 797.13
  Q 800.03 789.50 800.62 780.32
  Q 801.36 768.77 798.67 759.33
  C 796.15 750.49 790.43 741.54 782.65 736.07
  Q 771.34 728.12 756.43 729.19
  A 3.99 3.97 -56.4 0 0 755.55 729.37
  C 753.49 730.08 751.36 730.20 748.91 731.12
  Q 740.87 734.13 735.10 740.20
  Q 734.63 740.70 734.18 740.58
  Q 733.71 740.47 733.29 739.95
  Q 746.97 724.99 767.13 728.15
  Q 773.94 729.21 780.63 733.06
  C 807.09 748.26 809.44 791.62 788.43 812.03
  Q 777.37 822.76 761.07 823.99
  Q 754.38 824.49 748.99 823.07
  C 742.94 821.48 735.80 817.73 732.28 812.24
  Z"
/>
<path fill="#cc3d05" d="
  M 669.68 811.36
  Q 669.50 811.47 668.85 811.89
  Q 668.36 812.21 668.10 812.53
  Q 660.70 821.76 649.01 823.63
  Q 636.20 825.68 625.52 819.69
  C 615.26 813.94 611.10 803.27 612.16 791.78
  C 613.66 775.35 627.39 767.02 642.34 765.23
  Q 655.64 763.64 667.52 764.61
  A 0.55 0.54 3.6 0 0 668.11 764.10
  Q 669.01 750.04 655.00 748.09
  C 646.09 746.85 637.27 751.58 630.73 757.52
  A 1.32 1.32 0.0 0 1 628.78 757.32
  L 618.21 742.92
  A 0.93 0.92 -39.5 0 1 618.33 741.70
  C 619.84 740.31 622.63 737.60 625.10 736.03
  Q 632.15 731.53 639.94 729.34
  C 646.87 727.40 655.56 727.39 662.95 728.15
  C 674.43 729.33 685.33 735.64 689.73 746.51
  Q 692.76 754.00 693.02 763.50
  Q 693.06 765.15 693.00 809.25
  Q 692.99 815.46 694.09 821.35
  A 0.52 0.52 0.0 0 1 693.58 821.96
  L 671.41 821.96
  A 0.53 0.53 0.0 0 1 670.88 821.47
  L 670.11 811.58
  A 0.29 0.28 71.8 0 0 669.68 811.36
  Z
  M 669.15 809.93
  Q 670.13 810.38 671.46 812.07
  A 0.64 0.62 -66.7 0 1 671.60 812.44
  L 672.12 819.06
  A 1.17 1.16 87.9 0 0 673.28 820.14
  L 691.29 820.14
  A 0.66 0.65 -1.6 0 0 691.95 819.45
  Q 691.20 804.08 691.20 785.04
  Q 691.20 768.27 691.15 764.48
  C 691.04 755.50 689.65 745.20 682.90 738.64
  Q 680.92 736.72 676.94 734.19
  Q 674.02 732.33 670.12 731.24
  C 653.36 726.60 633.89 729.39 620.75 741.49
  A 1.81 1.80 -42.1 0 0 620.62 744.01
  Q 625.25 749.24 628.28 754.94
  A 2.00 2.00 0.0 0 0 631.47 755.41
  C 638.16 748.70 646.76 745.43 656.45 746.75
  C 664.65 747.86 669.36 753.58 669.90 761.79
  Q 670.20 766.48 665.50 766.30
  C 656.93 765.98 646.48 765.67 637.05 767.79
  C 630.02 769.38 620.85 774.08 617.30 780.85
  Q 610.30 794.17 616.60 808.25
  C 619.80 815.38 627.58 820.19 634.98 821.50
  Q 637.85 822.01 640.33 822.54
  A 4.02 3.94 50.3 0 0 641.30 822.64
  C 647.52 822.49 655.12 821.49 660.04 817.79
  Q 664.15 814.69 668.27 810.12
  A 0.76 0.76 0.0 0 1 669.15 809.93
  Z"
/>
<path fill="#cc3d05" d="
  M 826.36 790.97
  C 828.67 796.81 832.14 801.43 838.11 803.60
  Q 845.40 806.26 853.44 803.89
  Q 859.30 802.16 859.41 796.07
  C 859.53 788.64 849.61 786.53 844.00 785.33
  Q 831.14 782.58 825.33 779.92
  C 815.43 775.37 809.22 767.89 809.72 756.50
  C 809.95 751.24 810.30 747.66 812.88 743.24
  C 817.66 735.02 824.89 731.08 834.19 728.79
  C 839.98 727.37 847.14 727.60 852.47 728.16
  Q 858.07 728.75 864.08 731.21
  Q 877.26 736.60 882.08 750.34
  A 0.78 0.77 68.4 0 1 881.67 751.30
  L 863.51 759.27
  A 1.01 1.01 0.0 0 1 862.14 758.65
  C 859.08 749.09 850.57 744.40 840.90 746.31
  Q 835.54 747.37 833.73 751.61
  C 830.88 758.30 838.68 761.16 844.06 762.47
  Q 855.71 765.30 865.22 768.54
  C 873.99 771.52 881.44 777.77 883.58 787.02
  C 887.68 804.72 877.07 818.59 860.09 822.80
  C 848.64 825.63 834.78 824.50 824.19 819.80
  C 817.41 816.79 810.65 810.93 807.63 803.73
  Q 807.08 802.41 806.23 800.53
  A 1.19 1.18 66.0 0 1 806.83 798.96
  L 825.68 790.69
  A 0.51 0.50 -22.5 0 1 826.36 790.97
  Z
  M 831.45 752.90
  C 832.82 748.24 835.97 745.67 841.06 744.66
  Q 855.34 741.81 862.31 755.45
  Q 863.33 757.44 865.40 756.62
  Q 870.67 754.53 875.43 752.42
  Q 877.73 751.40 879.44 750.09
  A 1.23 1.22 -29.9 0 0 879.83 748.66
  Q 877.54 743.07 873.67 739.12
  C 866.04 731.31 852.10 728.59 841.69 729.35
  C 824.03 730.63 809.92 739.86 811.29 759.22
  Q 811.67 764.64 813.85 768.40
  Q 816.55 773.06 820.39 775.32
  Q 826.94 779.18 829.96 780.04
  Q 833.32 780.99 836.18 781.81
  C 841.31 783.27 846.20 783.95 850.85 785.37
  Q 857.31 787.33 860.59 792.59
  A 2.64 2.55 27.4 0 1 860.99 793.78
  Q 861.82 803.42 852.91 805.55
  Q 840.03 808.64 830.67 801.05
  A 1.61 1.52 -88.3 0 1 830.36 800.70
  L 825.81 793.53
  A 1.40 1.40 0.0 0 0 824.06 793.00
  L 809.25 799.50
  A 1.98 1.97 -24.9 0 0 808.27 802.18
  Q 815.40 816.64 831.31 820.45
  Q 842.72 823.17 849.04 822.95
  A 6.54 6.00 12.5 0 0 849.95 822.85
  Q 855.25 821.90 855.79 821.84
  C 864.57 820.91 874.79 815.61 879.34 807.67
  Q 886.34 795.43 879.87 781.65
  C 877.14 775.83 869.89 771.58 864.01 769.75
  Q 856.53 767.43 841.38 763.26
  C 838.19 762.39 834.56 760.83 832.99 758.32
  Q 830.86 754.93 831.45 752.90
  Z"
/>
<path fill="#d46522" d="
  M 385.42 820.21
  A 1.30 1.30 0.0 0 1 384.14 819.14
  C 383.81 817.21 384.84 815.36 384.85 813.27
  Q 384.96 791.43 384.67 765.53
  Q 384.60 759.30 381.05 754.73
  C 376.77 749.23 371.11 748.13 364.32 748.89
  Q 354.59 749.97 350.69 760.23
  C 349.43 763.56 349.07 768.46 349.06 772.68
  Q 348.99 798.97 349.28 819.22
  A 1.03 1.03 0.0 0 1 348.25 820.26
  L 327.61 820.26
  A 0.77 0.76 0.0 0 1 326.84 819.50
  L 326.84 732.57
  A 0.52 0.51 -0.0 0 1 327.36 732.06
  L 345.74 732.06
  A 0.92 0.91 -10.1 0 1 346.60 732.66
  Q 347.47 735.03 347.07 737.93
  A 1.41 1.40 -59.4 0 0 347.33 738.96
  L 348.42 740.45
  A 1.63 1.63 0.0 0 0 350.96 740.55
  Q 354.23 736.76 358.00 734.50
  Q 376.15 723.64 394.02 734.75
  C 404.11 741.02 407.39 755.07 407.03 766.56
  Q 406.90 770.59 406.98 775.45
  Q 407.49 807.08 407.77 818.25
  A 1.92 1.92 0.0 0 1 405.85 820.21
  L 385.42 820.21
  Z"
/>
<path fill="#d46522" d="
  M 449.00 737.10
  Q 448.73 739.74 450.30 740.58
  Q 469.11 722.56 491.11 732.12
  Q 495.60 734.08 500.10 739.24
  C 505.98 745.99 508.04 756.86 508.11 765.81
  Q 508.36 800.59 508.57 819.41
  A 0.85 0.85 0.0 0 1 507.72 820.27
  L 487.57 820.27
  A 1.49 1.48 87.9 0 1 486.09 818.89
  Q 485.85 815.16 485.88 806.45
  C 485.90 802.79 485.46 797.86 485.66 793.33
  Q 485.80 790.11 485.72 788.10
  C 485.44 781.37 485.85 776.03 486.00 769.17
  Q 486.12 763.85 484.87 760.77
  C 482.13 754.01 478.29 749.67 470.80 748.70
  C 456.14 746.79 448.91 756.45 448.90 770.01
  Q 448.87 809.80 449.17 816.00
  Q 449.25 817.68 449.36 818.90
  A 1.27 1.26 87.7 0 1 448.10 820.27
  L 427.31 820.27
  A 0.43 0.43 0.0 0 1 426.88 819.84
  L 426.88 732.65
  A 1.03 1.02 -0.0 0 1 427.91 731.63
  L 446.32 731.63
  A 1.16 1.16 0.0 0 1 447.48 732.72
  Q 447.62 734.91 449.00 737.10
  Z"
/>
<path fill="#d46522" d="
  M 668.27 810.12
  Q 664.15 814.69 660.04 817.79
  C 655.12 821.49 647.52 822.49 641.30 822.64
  A 4.02 3.94 50.3 0 1 640.33 822.54
  Q 637.85 822.01 634.98 821.50
  C 627.58 820.19 619.80 815.38 616.60 808.25
  Q 610.30 794.17 617.30 780.85
  C 620.85 774.08 630.02 769.38 637.05 767.79
  C 646.48 765.67 656.93 765.98 665.50 766.30
  Q 670.20 766.48 669.90 761.79
  C 669.36 753.58 664.65 747.86 656.45 746.75
  C 646.76 745.43 638.16 748.70 631.47 755.41
  A 2.00 2.00 0.0 0 1 628.28 754.94
  Q 625.25 749.24 620.62 744.01
  A 1.81 1.80 -42.1 0 1 620.75 741.49
  C 633.89 729.39 653.36 726.60 670.12 731.24
  Q 674.02 732.33 676.94 734.19
  Q 680.92 736.72 682.90 738.64
  C 689.65 745.20 691.04 755.50 691.15 764.48
  Q 691.20 768.27 691.20 785.04
  Q 691.20 804.08 691.95 819.45
  A 0.66 0.65 -1.6 0 1 691.29 820.14
  L 673.28 820.14
  A 1.17 1.16 87.9 0 1 672.12 819.06
  L 671.60 812.44
  A 0.64 0.62 -66.7 0 0 671.46 812.07
  Q 670.13 810.38 669.15 809.93
  A 0.76 0.76 0.0 0 0 668.27 810.12
  Z
  M 669.52 780.73
  Q 668.38 779.77 666.75 779.71
  C 656.12 779.34 636.50 778.37 634.81 793.40
  Q 634.36 797.37 636.38 800.47
  C 641.47 808.27 651.61 808.03 659.25 804.43
  Q 668.68 799.97 669.77 789.22
  Q 670.12 785.84 669.94 781.61
  A 1.23 1.23 0.0 0 0 669.52 780.73
  Z"
/>
<path fill="#d46522" d="
  M 831.45 752.90
  Q 830.86 754.93 832.99 758.32
  C 834.56 760.83 838.19 762.39 841.38 763.26
  Q 856.53 767.43 864.01 769.75
  C 869.89 771.58 877.14 775.83 879.87 781.65
  Q 886.34 795.43 879.34 807.67
  C 874.79 815.61 864.57 820.91 855.79 821.84
  Q 855.25 821.90 849.95 822.85
  A 6.54 6.00 12.5 0 1 849.04 822.95
  Q 842.72 823.17 831.31 820.45
  Q 815.40 816.64 808.27 802.18
  A 1.98 1.97 -24.9 0 1 809.25 799.50
  L 824.06 793.00
  A 1.40 1.40 0.0 0 1 825.81 793.53
  L 830.36 800.70
  A 1.61 1.52 -88.3 0 0 830.67 801.05
  Q 840.03 808.64 852.91 805.55
  Q 861.82 803.42 860.99 793.78
  A 2.64 2.55 27.4 0 0 860.59 792.59
  Q 857.31 787.33 850.85 785.37
  C 846.20 783.95 841.31 783.27 836.18 781.81
  Q 833.32 780.99 829.96 780.04
  Q 826.94 779.18 820.39 775.32
  Q 816.55 773.06 813.85 768.40
  Q 811.67 764.64 811.29 759.22
  C 809.92 739.86 824.03 730.63 841.69 729.35
  C 852.10 728.59 866.04 731.31 873.67 739.12
  Q 877.54 743.07 879.83 748.66
  A 1.23 1.22 -29.9 0 1 879.44 750.09
  Q 877.73 751.40 875.43 752.42
  Q 870.67 754.53 865.40 756.62
  Q 863.33 757.44 862.31 755.45
  Q 855.34 741.81 841.06 744.66
  C 835.97 745.67 832.82 748.24 831.45 752.90
  Z"
/>
<path fill="#cc3d05" d="
  M 268.06 791.03
  L 267.07 790.64
  A 1.54 1.53 1.3 0 1 266.18 789.71
  L 246.86 733.66
  A 2.79 2.69 -75.0 0 0 246.39 732.81
  Q 245.57 731.90 243.50 731.93
  Q 232.84 732.10 224.07 731.74
  A 1.59 1.58 -11.3 0 0 222.57 733.99
  Q 223.85 736.75 225.24 740.27
  Q 233.94 762.27 244.77 788.72
  C 246.10 791.96 247.70 796.67 249.55 800.73
  Q 254.28 811.13 255.71 815.98
  Q 257.15 820.89 255.66 826.71
  A 4.54 4.54 0.0 0 1 255.03 828.14
  Q 254.04 829.66 252.59 832.11
  C 249.02 838.14 239.64 840.61 233.15 839.99
  A 1.07 1.06 -87.3 0 0 231.99 841.06
  L 231.99 857.35
  A 1.30 1.30 0.0 0 0 233.19 858.65
  Q 240.20 859.18 247.39 857.94
  C 264.05 855.05 271.50 841.49 276.69 826.92
  Q 278.24 822.56 280.04 817.98
  Q 290.38 791.73 301.60 762.71
  Q 302.67 759.93 303.70 757.23
  Q 307.67 746.78 313.01 732.86
  A 0.75 0.74 -79.6 0 0 312.32 731.85
  L 292.01 731.85
  A 2.14 2.13 -79.7 0 0 290.01 733.24
  Q 287.92 738.78 287.01 741.50
  Q 277.42 770.08 271.49 787.77
  Q 270.66 790.24 268.97 790.95
  L 289.24 730.76
  A 0.83 0.83 0.0 0 1 290.03 730.19
  L 315.31 730.19
  A 0.44 0.43 -79.0 0 1 315.71 730.79
  Q 313.33 736.57 313.13 737.09
  Q 290.84 794.54 274.29 836.99
  Q 272.31 842.07 268.16 847.23
  C 258.26 859.53 245.84 861.09 230.91 860.06
  A 0.61 0.60 -88.0 0 1 230.35 859.45
  L 230.35 839.94
  A 1.19 1.19 0.0 0 1 231.64 838.75
  C 236.57 839.14 244.26 837.80 248.17 834.69
  C 251.10 832.36 256.03 825.12 255.55 821.13
  A 5.40 5.07 -88.3 0 0 255.42 820.38
  Q 254.67 817.25 253.25 813.78
  Q 238.01 776.73 220.14 731.54
  A 0.56 0.55 79.1 0 1 220.65 730.78
  L 247.14 730.78
  A 0.59 0.58 -8.8 0 1 247.70 731.18
  L 268.06 791.03
  Z"
/>
<path fill="#d46522" d="
  M 268.06 791.03
  Q 268.21 791.31 268.56 791.32
  A 0.49 0.48 -60.7 0 0 268.87 791.23
  Q 269.18 791.00 268.97 790.95
  Q 270.66 790.24 271.49 787.77
  Q 277.42 770.08 287.01 741.50
  Q 287.92 738.78 290.01 733.24
  A 2.14 2.13 -79.7 0 1 292.01 731.85
  L 312.32 731.85
  A 0.75 0.74 -79.6 0 1 313.01 732.86
  Q 307.67 746.78 303.70 757.23
  Q 302.67 759.93 301.60 762.71
  Q 290.38 791.73 280.04 817.98
  Q 278.24 822.56 276.69 826.92
  C 271.50 841.49 264.05 855.05 247.39 857.94
  Q 240.20 859.18 233.19 858.65
  A 1.30 1.30 0.0 0 1 231.99 857.35
  L 231.99 841.06
  A 1.07 1.06 -87.3 0 1 233.15 839.99
  C 239.64 840.61 249.02 838.14 252.59 832.11
  Q 254.04 829.66 255.03 828.14
  A 4.54 4.54 0.0 0 0 255.66 826.71
  Q 257.15 820.89 255.71 815.98
  Q 254.28 811.13 249.55 800.73
  C 247.70 796.67 246.10 791.96 244.77 788.72
  Q 233.94 762.27 225.24 740.27
  Q 223.85 736.75 222.57 733.99
  A 1.59 1.58 -11.3 0 1 224.07 731.74
  Q 232.84 732.10 243.50 731.93
  Q 245.57 731.90 246.39 732.81
  A 2.79 2.69 -75.0 0 1 246.86 733.66
  L 266.18 789.71
  A 1.54 1.53 1.3 0 0 267.07 790.64
  L 268.06 791.03
  Z"
/>
<path fill="#cc3d05" d="
  M 738.47 797.90
  Q 735.29 793.96 734.84 792.93
  Q 728.95 779.43 732.83 764.76
  C 734.75 757.51 739.87 750.70 747.40 748.78
  Q 757.71 746.15 767.20 751.56
  Q 768.49 752.29 771.87 756.15
  C 776.35 761.28 777.83 770.27 777.94 777.01
  C 778.10 786.40 774.05 795.72 766.08 800.68
  C 758.85 805.18 749.60 804.90 742.58 800.62
  Q 739.67 798.85 739.35 798.66
  A 3.24 3.22 -4.0 0 1 738.47 797.90
  Z
  M 732.87 775.95
  C 732.91 788.12 737.66 800.79 751.52 802.11
  C 768.06 803.70 776.47 790.94 776.43 775.83
  C 776.38 760.72 767.90 748.01 751.37 749.69
  C 737.51 751.10 732.84 763.79 732.87 775.95
  Z"
/>
<path fill="#cc3d05" d="
  M 669.94 781.61
  Q 670.12 785.84 669.77 789.22
  Q 668.68 799.97 659.25 804.43
  C 651.61 808.03 641.47 808.27 636.38 800.47
  Q 634.36 797.37 634.81 793.40
  C 636.50 778.37 656.12 779.34 666.75 779.71
  Q 668.38 779.77 669.52 780.73
  A 1.23 1.23 0.0 0 1 669.94 781.61
  Z
  M 667.63 781.46
  Q 661.90 781.30 653.77 781.50
  C 646.06 781.68 636.67 785.13 636.53 794.11
  C 636.44 800.65 640.83 804.75 647.27 805.14
  C 655.68 805.64 664.92 801.83 667.46 793.16
  C 668.45 789.80 667.98 785.97 668.35 782.28
  A 0.75 0.74 -86.4 0 0 667.63 781.46
  Z"
/>
</svg>
